%TF.GenerationSoftware,KiCad,Pcbnew,8.0.8*%
%TF.CreationDate,2025-02-21T00:18:55+11:00*%
%TF.ProjectId,FrameworkDongleHiderRetrofit,4672616d-6577-46f7-926b-446f6e676c65,rev?*%
%TF.SameCoordinates,Original*%
%TF.FileFunction,Profile,NP*%
%FSLAX46Y46*%
G04 Gerber Fmt 4.6, Leading zero omitted, Abs format (unit mm)*
G04 Created by KiCad (PCBNEW 8.0.8) date 2025-02-21 00:18:55*
%MOMM*%
%LPD*%
G01*
G04 APERTURE LIST*
%TA.AperFunction,Profile*%
%ADD10C,0.100000*%
%TD*%
G04 APERTURE END LIST*
D10*
X139190472Y-95340001D02*
G75*
G02*
X139697939Y-95579610I-26872J-714099D01*
G01*
X157487461Y-113740000D02*
X157487461Y-113040000D01*
X162837500Y-94950000D02*
X152657500Y-94950000D01*
X162837500Y-108550000D02*
X162837427Y-112740216D01*
X153787500Y-113740000D02*
X153786318Y-113086686D01*
X137085707Y-108142407D02*
G75*
G02*
X137987508Y-109141024I-96007J-993193D01*
G01*
X137287461Y-105092624D02*
X137287461Y-106040000D01*
X157489977Y-112950131D02*
G75*
G02*
X159087522Y-113038590I796323J-88469D01*
G01*
X150136393Y-96587969D02*
X150137500Y-105310000D01*
X136987461Y-108140000D02*
X137085707Y-108142407D01*
X153787461Y-90441333D02*
X153787461Y-89740000D01*
X137284580Y-106199091D02*
G75*
G02*
X136984418Y-106440026I-291480J55691D01*
G01*
X136984419Y-106440000D02*
X136087461Y-106440000D01*
X136087411Y-108140000D02*
X136987461Y-108140000D01*
X162837500Y-94950000D02*
X162837461Y-90740000D01*
X135587461Y-95840006D02*
G75*
G02*
X136022304Y-95342121I497639J4206D01*
G01*
X135587461Y-106940006D02*
X135587461Y-107640000D01*
X137046566Y-97042882D02*
G75*
G02*
X137287389Y-97342622I-55766J-291418D01*
G01*
X152384846Y-93519206D02*
X152384846Y-89740000D01*
X136627500Y-104790000D02*
X136987461Y-104790000D01*
X138987253Y-113740000D02*
X153787500Y-113740000D01*
X139966832Y-95865648D02*
X139697500Y-95580000D01*
X137287461Y-97440000D02*
X137287461Y-98390000D01*
X159087461Y-90440000D02*
X159084946Y-90529846D01*
X136627461Y-98690000D02*
X136568215Y-98692889D01*
X136987461Y-97040000D02*
X137046566Y-97042882D01*
X139967752Y-95864729D02*
G75*
G02*
X140259711Y-96572756I-705852J-705271D01*
G01*
X138987253Y-113739999D02*
G75*
G02*
X137989927Y-112838258I-4153J997799D01*
G01*
X137284580Y-98449091D02*
G75*
G02*
X136984418Y-98690026I-291480J55691D01*
G01*
X137987461Y-112740000D02*
X137989868Y-112838263D01*
X136087461Y-95340000D02*
X136022305Y-95342126D01*
X136087461Y-106440000D02*
X136022305Y-106442126D01*
X135587461Y-107640000D02*
X135589599Y-107705542D01*
X136984419Y-98690000D02*
X136627461Y-98690000D01*
X136987461Y-104790000D02*
X137046566Y-104792882D01*
X157487461Y-90441413D02*
X157487461Y-89740000D01*
X155787461Y-113740000D02*
X157487461Y-113740000D01*
X137287461Y-97342624D02*
X137287461Y-97440000D01*
X135587461Y-106940006D02*
G75*
G02*
X136022304Y-106442121I497639J4206D01*
G01*
X136087391Y-97040000D02*
X136987461Y-97040000D01*
X137987461Y-109141024D02*
X137987461Y-112740000D01*
X137046566Y-104792882D02*
G75*
G02*
X137287389Y-105092622I-55766J-291418D01*
G01*
X152657500Y-108540000D02*
X162837500Y-108550000D01*
X162837461Y-90740000D02*
X162835049Y-90641555D01*
X150452621Y-95865648D02*
X152089705Y-94228563D01*
X150136393Y-96587969D02*
G75*
G02*
X150452635Y-95865664I976907J2669D01*
G01*
X162837461Y-112740216D02*
G75*
G02*
X161935711Y-113737650I-997661J-4384D01*
G01*
X159087461Y-113740000D02*
X161837461Y-113740000D01*
X140259726Y-96572756D02*
X140259726Y-105315579D01*
X159084946Y-90529846D02*
G75*
G02*
X157487557Y-90441413I-796246J88446D01*
G01*
X157487461Y-89740000D02*
X155787461Y-89740000D01*
X136087411Y-108140000D02*
G75*
G02*
X135589642Y-107705536I-3911J497900D01*
G01*
X159087461Y-89740000D02*
X159087461Y-90440000D01*
X136327461Y-98990007D02*
G75*
G02*
X136568201Y-98692818I296639J5807D01*
G01*
X152385073Y-93519205D02*
G75*
G02*
X152089687Y-94228545I-1003973J1905D01*
G01*
X137287461Y-106040000D02*
X137287461Y-106140000D01*
X135587461Y-95840006D02*
X135587461Y-96540000D01*
X153787461Y-89740000D02*
X152384846Y-89740000D01*
X135587461Y-96540000D02*
X135589592Y-96605294D01*
X137287461Y-106140000D02*
X137284580Y-106199091D01*
X136327461Y-98990007D02*
X136327461Y-104496281D01*
X161837663Y-89740000D02*
G75*
G02*
X162835047Y-90641555I4137J-997900D01*
G01*
X159087461Y-113038590D02*
X159087461Y-113740000D01*
X152657500Y-94950000D02*
X152657500Y-108540000D01*
X155787461Y-90440000D02*
X155785054Y-90538257D01*
X161837663Y-89740000D02*
X159087461Y-89740000D01*
X136627500Y-104790000D02*
G75*
G02*
X136327370Y-104496283I0J300200D01*
G01*
X136087391Y-97040000D02*
G75*
G02*
X135589586Y-96605295I-4091J497700D01*
G01*
X155787461Y-89740000D02*
X155787461Y-90440000D01*
X161837461Y-113740000D02*
X161935706Y-113737593D01*
X155785054Y-90538257D02*
G75*
G02*
X153787450Y-90441333I-996454J96857D01*
G01*
X137287461Y-98390000D02*
X137284580Y-98449091D01*
X140259726Y-105315579D02*
X150137500Y-105310000D01*
X153786318Y-113086686D02*
G75*
G02*
X155787633Y-113038671I1000082J47986D01*
G01*
X139190472Y-95340001D02*
X136087461Y-95340000D01*
X157487461Y-113040000D02*
X157489977Y-112950131D01*
X155787461Y-113038671D02*
X155787461Y-113740000D01*
M02*
