%TF.GenerationSoftware,KiCad,Pcbnew,8.0.8*%
%TF.CreationDate,2025-02-21T00:18:55+11:00*%
%TF.ProjectId,FrameworkDongleHiderRetrofit,4672616d-6577-46f7-926b-446f6e676c65,rev?*%
%TF.SameCoordinates,Original*%
%TF.FileFunction,Copper,L4,Bot*%
%TF.FilePolarity,Positive*%
%FSLAX46Y46*%
G04 Gerber Fmt 4.6, Leading zero omitted, Abs format (unit mm)*
G04 Created by KiCad (PCBNEW 8.0.8) date 2025-02-21 00:18:55*
%MOMM*%
%LPD*%
G01*
G04 APERTURE LIST*
%TA.AperFunction,SMDPad,CuDef*%
%ADD10R,1.000000X0.380000*%
%TD*%
%TA.AperFunction,SMDPad,CuDef*%
%ADD11R,1.150000X0.700000*%
%TD*%
%TA.AperFunction,ComponentPad*%
%ADD12O,2.500000X1.300000*%
%TD*%
%TA.AperFunction,SMDPad,CuDef*%
%ADD13R,1.500000X1.500000*%
%TD*%
%TA.AperFunction,ViaPad*%
%ADD14C,0.450000*%
%TD*%
%TA.AperFunction,Conductor*%
%ADD15C,0.380000*%
%TD*%
%TA.AperFunction,Conductor*%
%ADD16C,0.200000*%
%TD*%
G04 APERTURE END LIST*
D10*
%TO.P,P1,B1,GND*%
%TO.N,GND*%
X137327500Y-98990000D03*
%TO.P,P1,B2,TX2+*%
%TO.N,unconnected-(P1-TX2+-PadB2)*%
X137327500Y-99490000D03*
%TO.P,P1,B3,TX2-*%
%TO.N,unconnected-(P1-TX2--PadB3)*%
X137327500Y-99990000D03*
%TO.P,P1,B4,VBUS*%
%TO.N,VBUS*%
X137327500Y-100490000D03*
%TO.P,P1,B5,VCONN*%
%TO.N,unconnected-(P1-VCONN-PadB5)*%
X137327500Y-100990000D03*
%TO.P,P1,B8,SBU2*%
%TO.N,unconnected-(P1-SBU2-PadB8)*%
X137327500Y-102490000D03*
%TO.P,P1,B9,VBUS*%
%TO.N,VBUS*%
X137327500Y-102990000D03*
%TO.P,P1,B10,RX1-*%
%TO.N,RX-*%
X137327500Y-103490000D03*
%TO.P,P1,B11,RX1+*%
%TO.N,RX+*%
X137327500Y-103990000D03*
%TO.P,P1,B12,GND*%
%TO.N,GND*%
X137327500Y-104490000D03*
D11*
%TO.P,P1,S1,SHIELD*%
X138167500Y-98320000D03*
%TD*%
D12*
%TO.P,J3,10,SHIELD*%
%TO.N,GND*%
X152447500Y-109700000D03*
%TO.P,J3,11,SHIELD*%
X157947500Y-109700000D03*
%TO.P,J3,12,SHIELD*%
X157947500Y-93800000D03*
%TD*%
D13*
%TO.P,USB2,1,Pin_1*%
%TO.N,VBUS*%
X141602500Y-106240000D03*
%TO.P,USB2,2,Pin_2*%
%TO.N,Net-(U1-DM3-)*%
X144102500Y-106240000D03*
%TO.P,USB2,3,Pin_3*%
%TO.N,Net-(U1-DP3+)*%
X146102500Y-106240000D03*
%TO.P,USB2,4,Pin_4*%
%TO.N,GND*%
X148602500Y-106240000D03*
%TD*%
D14*
%TO.N,GND*%
X154777500Y-111390000D03*
X156227500Y-112290000D03*
X153127500Y-113090000D03*
X155677500Y-111690000D03*
X156427500Y-113090000D03*
X153327500Y-112290000D03*
X153877500Y-111690000D03*
X156227500Y-91190000D03*
X155677500Y-91790000D03*
X156427500Y-90390000D03*
X153127500Y-90390000D03*
X153327500Y-91190000D03*
X153877500Y-91790000D03*
X154777500Y-92090000D03*
X142827500Y-107390000D03*
X139727500Y-97940000D03*
%TO.N,VBUS*%
X138427500Y-102990000D03*
X150527500Y-104990000D03*
X140777500Y-110890000D03*
X150527500Y-104390000D03*
X150527500Y-104390000D03*
X147027500Y-108190000D03*
X142777500Y-106640000D03*
X142777500Y-105890000D03*
X147427500Y-106540000D03*
X150527500Y-104990000D03*
X138677500Y-99590000D03*
X138327500Y-99940000D03*
%TO.N,GND*%
X149827500Y-110390000D03*
X142827500Y-111190000D03*
X138077500Y-104540000D03*
X152477500Y-111240000D03*
X144427500Y-111190000D03*
X139737500Y-102090000D03*
X150677500Y-99690000D03*
X149127500Y-108140000D03*
X143627500Y-110490000D03*
X149127500Y-109040000D03*
X136077500Y-95840000D03*
X136777500Y-95840000D03*
X136777500Y-106940000D03*
X136077500Y-107640000D03*
X151477500Y-111240000D03*
X140427500Y-113090000D03*
X143627500Y-111890000D03*
X136077500Y-96540000D03*
X136077500Y-106940000D03*
X136777500Y-96540000D03*
X140327500Y-107990000D03*
X136777500Y-107640000D03*
X150677500Y-97960002D03*
%TO.N,RX+*%
X152127500Y-97790000D03*
X137777500Y-105940000D03*
%TO.N,Net-(P1-D+)*%
X138327500Y-101965000D03*
X141627500Y-108590000D03*
%TO.N,RX-*%
X151927500Y-96090000D03*
X139327500Y-106290000D03*
%TO.N,TX+*%
X138377500Y-107040000D03*
X150377500Y-106865000D03*
%TO.N,Net-(P1-D-)*%
X138427500Y-101090000D03*
X142227500Y-107990000D03*
%TO.N,TX-*%
X139277500Y-107040000D03*
X150377500Y-106190000D03*
%TO.N,Net-(U1-DP1+)*%
X143727500Y-108090000D03*
X147066646Y-107357107D03*
%TO.N,Net-(U1-DP3+)*%
X146561584Y-108768290D03*
%TO.N,Net-(U1-DM1-)*%
X147227500Y-110190000D03*
X144927500Y-107940000D03*
%TO.N,Net-(U1-DM3-)*%
X146677500Y-109690000D03*
%TO.N,Net-(J3-D+)*%
X152232500Y-101567377D03*
X152227500Y-107590000D03*
%TO.N,Net-(J3-D-)*%
X151727500Y-103290000D03*
X151327500Y-108740000D03*
%TD*%
D15*
%TO.N,VBUS*%
X138327500Y-100240000D02*
X138327500Y-100081421D01*
X138427500Y-102990000D02*
X137327500Y-102990000D01*
X137327500Y-100490000D02*
X138077500Y-100490000D01*
X138427500Y-99840000D02*
X138677500Y-99590000D01*
X138077500Y-100490000D02*
G75*
G03*
X138327500Y-100240000I0J250000D01*
G01*
X138327500Y-100081421D02*
G75*
G02*
X138427494Y-99839994I341400J21D01*
G01*
D16*
%TO.N,RX+*%
X137327500Y-103990000D02*
X138227500Y-103990000D01*
X138227500Y-105940000D02*
X137777500Y-105940000D01*
X138626216Y-104337508D02*
X138626216Y-105541284D01*
X138626216Y-105541284D02*
G75*
G02*
X138227500Y-105940016I-398716J-16D01*
G01*
X138227500Y-103990000D02*
G75*
G02*
X138626280Y-104337499I-1600J-404400D01*
G01*
%TO.N,RX-*%
X137327500Y-103490000D02*
X138227500Y-103490000D01*
X139125574Y-104301547D02*
X139125574Y-105488074D01*
X139125574Y-105488074D02*
X139127500Y-105490000D01*
X139127500Y-105490000D02*
X139127500Y-105807158D01*
X138227500Y-103490000D02*
G75*
G02*
X139125593Y-104301545I-1800J-904700D01*
G01*
X139127500Y-105807158D02*
G75*
G03*
X139327487Y-106290013I682800J-42D01*
G01*
%TO.N,Net-(U1-DP1+)*%
X143727500Y-108090000D02*
X144086079Y-108090000D01*
X144527500Y-108590000D02*
X144527500Y-108890000D01*
X147827500Y-110190000D02*
X147827500Y-110172842D01*
X144327500Y-108190000D02*
X144386078Y-108248578D01*
X147627500Y-108248579D02*
X147627500Y-107917961D01*
X147427500Y-109207158D02*
X147427500Y-108731421D01*
X146527500Y-110790000D02*
X147227500Y-110790000D01*
X144739632Y-109402132D02*
X145844657Y-110507157D01*
X147427500Y-108731421D02*
G75*
G02*
X147527494Y-108489994I341400J21D01*
G01*
X147627500Y-109690000D02*
G75*
G02*
X147427518Y-109207158I482800J482800D01*
G01*
X147627500Y-107917961D02*
G75*
G03*
X147066646Y-107357100I-560900J-39D01*
G01*
X147827500Y-110172842D02*
G75*
G03*
X147627513Y-109689987I-682800J42D01*
G01*
X144527500Y-108890000D02*
G75*
G03*
X144739625Y-109402139I724300J0D01*
G01*
X144386078Y-108248578D02*
G75*
G02*
X144527483Y-108590000I-341478J-341422D01*
G01*
X145844657Y-110507157D02*
G75*
G03*
X146527500Y-110789996I682843J682857D01*
G01*
X144086079Y-108090000D02*
G75*
G02*
X144327506Y-108189994I21J-341400D01*
G01*
X147527500Y-108490000D02*
G75*
G03*
X147627491Y-108248579I-241400J241400D01*
G01*
X147227500Y-110790000D02*
G75*
G03*
X147827500Y-110190000I0J600000D01*
G01*
%TO.N,Net-(U1-DP3+)*%
X146561584Y-108768290D02*
X146391601Y-108598307D01*
X146077500Y-107840000D02*
X146077500Y-106300355D01*
X146077500Y-106300355D02*
G75*
G02*
X146102513Y-106240013I85400J-45D01*
G01*
X146391601Y-108598307D02*
G75*
G02*
X146077498Y-107840000I758299J758307D01*
G01*
%TO.N,Net-(U1-DM1-)*%
X147168922Y-110248579D02*
X147227500Y-110190000D01*
X146727500Y-110390000D02*
X146827500Y-110390000D01*
X144927500Y-107940000D02*
X144927500Y-108565736D01*
X145227500Y-109290000D02*
X146044657Y-110107157D01*
X146827500Y-110390000D02*
G75*
G03*
X147168913Y-110248570I0J482800D01*
G01*
X144927500Y-108565736D02*
G75*
G03*
X145227511Y-109289989I1024300J36D01*
G01*
X146044657Y-110107157D02*
G75*
G03*
X146727500Y-110389996I682843J682857D01*
G01*
%TO.N,Net-(U1-DM3-)*%
X145436079Y-107498579D02*
X145227500Y-107290000D01*
X145627500Y-108415736D02*
X145627500Y-107960710D01*
X146336078Y-109548579D02*
X145927500Y-109140000D01*
X145227500Y-107290000D02*
X144230533Y-106293033D01*
X145627500Y-107960710D02*
G75*
G03*
X145436094Y-107498564I-653600J10D01*
G01*
X146677500Y-109690000D02*
G75*
G02*
X146336087Y-109548570I0J482800D01*
G01*
X145927500Y-109140000D02*
G75*
G02*
X145627485Y-108415736I724300J724300D01*
G01*
X144230533Y-106293033D02*
G75*
G03*
X144102500Y-106240010I-128033J-128067D01*
G01*
%TD*%
%TA.AperFunction,Conductor*%
%TO.N,GND*%
G36*
X153546152Y-89959407D02*
G01*
X153582116Y-90008907D01*
X153586961Y-90039500D01*
X153586961Y-90415031D01*
X153586950Y-90441320D01*
X153586949Y-90443668D01*
X153586908Y-90543198D01*
X153609908Y-90677918D01*
X153621133Y-90743674D01*
X153621197Y-90744045D01*
X153688809Y-90936259D01*
X153787813Y-91114340D01*
X153787815Y-91114344D01*
X153915383Y-91273215D01*
X153915392Y-91273224D01*
X153957029Y-91310119D01*
X154067883Y-91408349D01*
X154240953Y-91515880D01*
X154302026Y-91540755D01*
X154429649Y-91592738D01*
X154429653Y-91592739D01*
X154429656Y-91592740D01*
X154628605Y-91636735D01*
X154832120Y-91646609D01*
X155012442Y-91624743D01*
X155034387Y-91622083D01*
X155034388Y-91622082D01*
X155034394Y-91622082D01*
X155229651Y-91563852D01*
X155412319Y-91473582D01*
X155577183Y-91353848D01*
X155719536Y-91208069D01*
X155835317Y-91040406D01*
X155921219Y-90855644D01*
X155974791Y-90659057D01*
X155979949Y-90605793D01*
X155983372Y-90592777D01*
X155982379Y-90592554D01*
X155984513Y-90583045D01*
X155984517Y-90583037D01*
X155985228Y-90553999D01*
X155985663Y-90546849D01*
X155988472Y-90517960D01*
X155987504Y-90508256D01*
X155988504Y-90508156D01*
X155986678Y-90494781D01*
X155986706Y-90493635D01*
X155987961Y-90482350D01*
X155987961Y-90443668D01*
X155987991Y-90441243D01*
X155988938Y-90402580D01*
X155987961Y-90391231D01*
X155987961Y-90039500D01*
X156006868Y-89981309D01*
X156056368Y-89945345D01*
X156086961Y-89940500D01*
X157187961Y-89940500D01*
X157246152Y-89959407D01*
X157282116Y-90008907D01*
X157286961Y-90039500D01*
X157286961Y-90393548D01*
X157286960Y-90393562D01*
X157286961Y-90441416D01*
X157286961Y-90490662D01*
X157287033Y-90491403D01*
X157287024Y-90512341D01*
X157287013Y-90536578D01*
X157322854Y-90723497D01*
X157393252Y-90900322D01*
X157495688Y-91060729D01*
X157626496Y-91198976D01*
X157626497Y-91198976D01*
X157626497Y-91198977D01*
X157673880Y-91233063D01*
X157780996Y-91310119D01*
X157953662Y-91390181D01*
X158026400Y-91408347D01*
X158138309Y-91436296D01*
X158138310Y-91436296D01*
X158138314Y-91436297D01*
X158328347Y-91446818D01*
X158516961Y-91421366D01*
X158697409Y-91360853D01*
X158863234Y-91267443D01*
X159008502Y-91144480D01*
X159027065Y-91121475D01*
X159128014Y-90996367D01*
X159128015Y-90996364D01*
X159128018Y-90996361D01*
X159217505Y-90828386D01*
X159273760Y-90646566D01*
X159279076Y-90598488D01*
X159282747Y-90584988D01*
X159282081Y-90584836D01*
X159284249Y-90575329D01*
X159284252Y-90575323D01*
X159285021Y-90547821D01*
X159285587Y-90539669D01*
X159288623Y-90512343D01*
X159288621Y-90512338D01*
X159287788Y-90502625D01*
X159290333Y-90502406D01*
X159289786Y-90489641D01*
X159287961Y-90489641D01*
X159287961Y-90444172D01*
X159288000Y-90441402D01*
X159289043Y-90404121D01*
X159287961Y-90391289D01*
X159287961Y-90039500D01*
X159306868Y-89981309D01*
X159356368Y-89945345D01*
X159386961Y-89940500D01*
X161788233Y-89940500D01*
X161790298Y-89940699D01*
X161823667Y-89940559D01*
X161833903Y-89940517D01*
X161843036Y-89940900D01*
X161975927Y-89952658D01*
X161993882Y-89955937D01*
X162117918Y-89990669D01*
X162134974Y-89997196D01*
X162250500Y-90054118D01*
X162266065Y-90063664D01*
X162369179Y-90140852D01*
X162382723Y-90153095D01*
X162469894Y-90247908D01*
X162480964Y-90262439D01*
X162549227Y-90371648D01*
X162557439Y-90387965D01*
X162604475Y-90507856D01*
X162609549Y-90525405D01*
X162633351Y-90649780D01*
X162635086Y-90665963D01*
X162636931Y-90741250D01*
X162636961Y-90743674D01*
X162636997Y-94650499D01*
X162618090Y-94708690D01*
X162568591Y-94744654D01*
X162537997Y-94749500D01*
X152617617Y-94749500D01*
X152543928Y-94780022D01*
X152487522Y-94836428D01*
X152457000Y-94910117D01*
X152457000Y-95781176D01*
X152438093Y-95839367D01*
X152388593Y-95875331D01*
X152327407Y-95875331D01*
X152281702Y-95842124D01*
X152281537Y-95842290D01*
X152280492Y-95841245D01*
X152277907Y-95839367D01*
X152276029Y-95836782D01*
X152276028Y-95836780D01*
X152180720Y-95741472D01*
X152180717Y-95741470D01*
X152060629Y-95680282D01*
X152060627Y-95680281D01*
X151927500Y-95659196D01*
X151794372Y-95680281D01*
X151794370Y-95680282D01*
X151674282Y-95741470D01*
X151578970Y-95836782D01*
X151517782Y-95956870D01*
X151517781Y-95956872D01*
X151496696Y-96089999D01*
X151496696Y-96090000D01*
X151517781Y-96223127D01*
X151517782Y-96223129D01*
X151578970Y-96343217D01*
X151578972Y-96343220D01*
X151674280Y-96438528D01*
X151794374Y-96499719D01*
X151927500Y-96520804D01*
X152060626Y-96499719D01*
X152180720Y-96438528D01*
X152276028Y-96343220D01*
X152276032Y-96343210D01*
X152277904Y-96340636D01*
X152280489Y-96338757D01*
X152281537Y-96337710D01*
X152281702Y-96337875D01*
X152327403Y-96304670D01*
X152388588Y-96304667D01*
X152438090Y-96340628D01*
X152457000Y-96398818D01*
X152457000Y-97318785D01*
X152438093Y-97376976D01*
X152388593Y-97412940D01*
X152327407Y-97412940D01*
X152313055Y-97406995D01*
X152299558Y-97400118D01*
X152260626Y-97380281D01*
X152127500Y-97359196D01*
X151994372Y-97380281D01*
X151994370Y-97380282D01*
X151874282Y-97441470D01*
X151778970Y-97536782D01*
X151717782Y-97656870D01*
X151717781Y-97656872D01*
X151696696Y-97789999D01*
X151696696Y-97790000D01*
X151717781Y-97923127D01*
X151717782Y-97923129D01*
X151778970Y-98043217D01*
X151778972Y-98043220D01*
X151874280Y-98138528D01*
X151994374Y-98199719D01*
X152127500Y-98220804D01*
X152260626Y-98199719D01*
X152313055Y-98173004D01*
X152373486Y-98163433D01*
X152428003Y-98191210D01*
X152455781Y-98245726D01*
X152457000Y-98261214D01*
X152457000Y-101056216D01*
X152438093Y-101114407D01*
X152388593Y-101150371D01*
X152342513Y-101153997D01*
X152232501Y-101136573D01*
X152232500Y-101136573D01*
X152099372Y-101157658D01*
X152099370Y-101157659D01*
X151979282Y-101218847D01*
X151883970Y-101314159D01*
X151822782Y-101434247D01*
X151822781Y-101434249D01*
X151801696Y-101567376D01*
X151801696Y-101567377D01*
X151822781Y-101700504D01*
X151822782Y-101700506D01*
X151883970Y-101820594D01*
X151883972Y-101820597D01*
X151979280Y-101915905D01*
X152099374Y-101977096D01*
X152232500Y-101998181D01*
X152342514Y-101980756D01*
X152402945Y-101990327D01*
X152446209Y-102033591D01*
X152457000Y-102078537D01*
X152457000Y-107079631D01*
X152438093Y-107137822D01*
X152388593Y-107173786D01*
X152342513Y-107177412D01*
X152227501Y-107159196D01*
X152227500Y-107159196D01*
X152094372Y-107180281D01*
X152094370Y-107180282D01*
X151974282Y-107241470D01*
X151878970Y-107336782D01*
X151817782Y-107456870D01*
X151817781Y-107456872D01*
X151796696Y-107589999D01*
X151796696Y-107590000D01*
X151817781Y-107723127D01*
X151817782Y-107723129D01*
X151878080Y-107841470D01*
X151878972Y-107843220D01*
X151974280Y-107938528D01*
X152094374Y-107999719D01*
X152227500Y-108020804D01*
X152342515Y-108002587D01*
X152402944Y-108012158D01*
X152446209Y-108055422D01*
X152457000Y-108100368D01*
X152457000Y-108539901D01*
X152456960Y-108579686D01*
X152456998Y-108579878D01*
X152460616Y-108588614D01*
X152472289Y-108616795D01*
X152472308Y-108616890D01*
X152472326Y-108616883D01*
X152487414Y-108653409D01*
X152487474Y-108653500D01*
X152487520Y-108653569D01*
X152487523Y-108653572D01*
X152487524Y-108653574D01*
X152502163Y-108668213D01*
X152515676Y-108681726D01*
X152515659Y-108681742D01*
X152515744Y-108681794D01*
X152543760Y-108709865D01*
X152543828Y-108709911D01*
X152543890Y-108709952D01*
X152543925Y-108709975D01*
X152543926Y-108709976D01*
X152580688Y-108725203D01*
X152617421Y-108740461D01*
X152617427Y-108740461D01*
X152617616Y-108740499D01*
X152617618Y-108740500D01*
X152617620Y-108740500D01*
X152657124Y-108740500D01*
X162538093Y-108750205D01*
X162596263Y-108769170D01*
X162632179Y-108818705D01*
X162636994Y-108849207D01*
X162636927Y-112691000D01*
X162636751Y-112692829D01*
X162636925Y-112732625D01*
X162636926Y-112733056D01*
X162636926Y-112737132D01*
X162636543Y-112745836D01*
X162624830Y-112878547D01*
X162621549Y-112896527D01*
X162586834Y-113020558D01*
X162580305Y-113037627D01*
X162523380Y-113153171D01*
X162513825Y-113168748D01*
X162436634Y-113271858D01*
X162424378Y-113285416D01*
X162329545Y-113372583D01*
X162315005Y-113383655D01*
X162205771Y-113451902D01*
X162189445Y-113460114D01*
X162069521Y-113507123D01*
X162051963Y-113512193D01*
X161927881Y-113535891D01*
X161911735Y-113537619D01*
X161838778Y-113539407D01*
X161836226Y-113539470D01*
X161833802Y-113539500D01*
X159386961Y-113539500D01*
X159328770Y-113520593D01*
X159292806Y-113471093D01*
X159287961Y-113440500D01*
X159287961Y-113079668D01*
X159288003Y-113079538D01*
X159288022Y-113038587D01*
X159288067Y-112943418D01*
X159252224Y-112756486D01*
X159181822Y-112579646D01*
X159079380Y-112419228D01*
X159067331Y-112406494D01*
X158948575Y-112280980D01*
X158948567Y-112280973D01*
X158948563Y-112280969D01*
X158837409Y-112201006D01*
X158794051Y-112169815D01*
X158794043Y-112169811D01*
X158621377Y-112089748D01*
X158621372Y-112089746D01*
X158436711Y-112043625D01*
X158294172Y-112035732D01*
X158246661Y-112033102D01*
X158246660Y-112033102D01*
X158058035Y-112058552D01*
X157877571Y-112119069D01*
X157877564Y-112119072D01*
X157731357Y-112201428D01*
X157711732Y-112212483D01*
X157581249Y-112322927D01*
X157566445Y-112335459D01*
X157446925Y-112483579D01*
X157357428Y-112651567D01*
X157301165Y-112833398D01*
X157295845Y-112881497D01*
X157292176Y-112894998D01*
X157292840Y-112895150D01*
X157290671Y-112904652D01*
X157289901Y-112932137D01*
X157289335Y-112940289D01*
X157286299Y-112967625D01*
X157287134Y-112977343D01*
X157284601Y-112977560D01*
X157285151Y-112990371D01*
X157286961Y-112990371D01*
X157286961Y-113035805D01*
X157286922Y-113038576D01*
X157285877Y-113075874D01*
X157286961Y-113088715D01*
X157286961Y-113440500D01*
X157268054Y-113498691D01*
X157218554Y-113534655D01*
X157187961Y-113539500D01*
X156086961Y-113539500D01*
X156028770Y-113520593D01*
X155992806Y-113471093D01*
X155987961Y-113440500D01*
X155987961Y-113088802D01*
X155988054Y-113087853D01*
X155988054Y-113079793D01*
X155988104Y-113079638D01*
X155988085Y-113079638D01*
X155988131Y-113038665D01*
X155988132Y-113038665D01*
X155988253Y-112931904D01*
X155956836Y-112756489D01*
X155950611Y-112721731D01*
X155946614Y-112710929D01*
X155876508Y-112521476D01*
X155876505Y-112521472D01*
X155876505Y-112521470D01*
X155768272Y-112337426D01*
X155768271Y-112337424D01*
X155685317Y-112240680D01*
X155629281Y-112175329D01*
X155560390Y-112119072D01*
X155505090Y-112073913D01*
X155463897Y-112040274D01*
X155463895Y-112040273D01*
X155463894Y-112040272D01*
X155463893Y-112040271D01*
X155277301Y-111936487D01*
X155277296Y-111936484D01*
X155075322Y-111867212D01*
X154864307Y-111834629D01*
X154864304Y-111834629D01*
X154784256Y-111836549D01*
X154650838Y-111839750D01*
X154441628Y-111882416D01*
X154441627Y-111882417D01*
X154243208Y-111961295D01*
X154243206Y-111961296D01*
X154061803Y-112073911D01*
X153903089Y-112216739D01*
X153772028Y-112385318D01*
X153672741Y-112574350D01*
X153608328Y-112777922D01*
X153608327Y-112777927D01*
X153580808Y-112989654D01*
X153580808Y-112989655D01*
X153585711Y-113089436D01*
X153585830Y-113094115D01*
X153586457Y-113440321D01*
X153567655Y-113498546D01*
X153518220Y-113534599D01*
X153487457Y-113539500D01*
X139036693Y-113539500D01*
X139034618Y-113539299D01*
X138991008Y-113539481D01*
X138981872Y-113539097D01*
X138848982Y-113527340D01*
X138831008Y-113524057D01*
X138706983Y-113489322D01*
X138689920Y-113482792D01*
X138574389Y-113425858D01*
X138558814Y-113416303D01*
X138529203Y-113394132D01*
X138455714Y-113339107D01*
X138442164Y-113326855D01*
X138355000Y-113232021D01*
X138343938Y-113217495D01*
X138275688Y-113108261D01*
X138267478Y-113091939D01*
X138262316Y-113078773D01*
X138220463Y-112972022D01*
X138215396Y-112954482D01*
X138191551Y-112829713D01*
X138189822Y-112813556D01*
X138188997Y-112779882D01*
X138187991Y-112738779D01*
X138187961Y-112736356D01*
X138187961Y-110889999D01*
X140346696Y-110889999D01*
X140346696Y-110890000D01*
X140367781Y-111023127D01*
X140367782Y-111023129D01*
X140428970Y-111143217D01*
X140428972Y-111143220D01*
X140524280Y-111238528D01*
X140644374Y-111299719D01*
X140777500Y-111320804D01*
X140910626Y-111299719D01*
X141030720Y-111238528D01*
X141126028Y-111143220D01*
X141187219Y-111023126D01*
X141208304Y-110890000D01*
X141187219Y-110756874D01*
X141126028Y-110636780D01*
X141030720Y-110541472D01*
X141030717Y-110541470D01*
X140910629Y-110480282D01*
X140910627Y-110480281D01*
X140777500Y-110459196D01*
X140644372Y-110480281D01*
X140644370Y-110480282D01*
X140524282Y-110541470D01*
X140428970Y-110636782D01*
X140367782Y-110756870D01*
X140367781Y-110756872D01*
X140346696Y-110889999D01*
X138187961Y-110889999D01*
X138187961Y-109149651D01*
X138187963Y-109149067D01*
X138188004Y-109142114D01*
X138188587Y-109043370D01*
X138165825Y-108901416D01*
X138157320Y-108848373D01*
X138157319Y-108848371D01*
X138157319Y-108848368D01*
X138094553Y-108661115D01*
X138056816Y-108589999D01*
X141196696Y-108589999D01*
X141196696Y-108590000D01*
X141217781Y-108723127D01*
X141217782Y-108723129D01*
X141278970Y-108843217D01*
X141278972Y-108843220D01*
X141374280Y-108938528D01*
X141494374Y-108999719D01*
X141627500Y-109020804D01*
X141760626Y-108999719D01*
X141880720Y-108938528D01*
X141976028Y-108843220D01*
X142037219Y-108723126D01*
X142058304Y-108590000D01*
X142047778Y-108523544D01*
X142057349Y-108463115D01*
X142100613Y-108419850D01*
X142161043Y-108410278D01*
X142227500Y-108420804D01*
X142360626Y-108399719D01*
X142480720Y-108338528D01*
X142576028Y-108243220D01*
X142637219Y-108123126D01*
X142658304Y-107990000D01*
X142637219Y-107856874D01*
X142576028Y-107736780D01*
X142480720Y-107641472D01*
X142480717Y-107641470D01*
X142360629Y-107580282D01*
X142360627Y-107580281D01*
X142227500Y-107559196D01*
X142094372Y-107580281D01*
X142094370Y-107580282D01*
X141974282Y-107641470D01*
X141878970Y-107736782D01*
X141817782Y-107856870D01*
X141817781Y-107856872D01*
X141796696Y-107989999D01*
X141796696Y-107990000D01*
X141807221Y-108056453D01*
X141797650Y-108116885D01*
X141754385Y-108160150D01*
X141693953Y-108169721D01*
X141627500Y-108159196D01*
X141494372Y-108180281D01*
X141494370Y-108180282D01*
X141374282Y-108241470D01*
X141278970Y-108336782D01*
X141217782Y-108456870D01*
X141217781Y-108456872D01*
X141196696Y-108589999D01*
X138056816Y-108589999D01*
X138001982Y-108486662D01*
X137953672Y-108423413D01*
X137882112Y-108329725D01*
X137882110Y-108329723D01*
X137882104Y-108329715D01*
X137738152Y-108194508D01*
X137738148Y-108194504D01*
X137738145Y-108194502D01*
X137581949Y-108089999D01*
X137574010Y-108084687D01*
X137394105Y-108003217D01*
X137282901Y-107973539D01*
X137203297Y-107952294D01*
X137203292Y-107952293D01*
X137203291Y-107952293D01*
X137203287Y-107952292D01*
X137203283Y-107952292D01*
X137153215Y-107947476D01*
X137140230Y-107944068D01*
X137140003Y-107945080D01*
X137130487Y-107942943D01*
X137101384Y-107942230D01*
X137094289Y-107941801D01*
X137065305Y-107938999D01*
X137055606Y-107939973D01*
X137055504Y-107938960D01*
X137042160Y-107940779D01*
X137041106Y-107940753D01*
X137029804Y-107939500D01*
X137027343Y-107939500D01*
X136991128Y-107939500D01*
X136988703Y-107939470D01*
X136950038Y-107938522D01*
X136938691Y-107939500D01*
X136136682Y-107939500D01*
X136132847Y-107939137D01*
X136093026Y-107939449D01*
X136078708Y-107938521D01*
X136014973Y-107929719D01*
X135987479Y-107921744D01*
X135935541Y-107898086D01*
X135911480Y-107882578D01*
X135868485Y-107845052D01*
X135849867Y-107823309D01*
X135819401Y-107775041D01*
X135807784Y-107748879D01*
X135805711Y-107741472D01*
X135792705Y-107694988D01*
X135789096Y-107671538D01*
X135788938Y-107666707D01*
X135788014Y-107638353D01*
X135787961Y-107635127D01*
X135787961Y-106989257D01*
X135788350Y-106985128D01*
X135788015Y-106945524D01*
X135788936Y-106931184D01*
X135797713Y-106867426D01*
X135805690Y-106839904D01*
X135829347Y-106787959D01*
X135844871Y-106763880D01*
X135882422Y-106720887D01*
X135904187Y-106702269D01*
X135952479Y-106671835D01*
X135978676Y-106660229D01*
X135995806Y-106655454D01*
X136032538Y-106645217D01*
X136055881Y-106641637D01*
X136086294Y-106640644D01*
X136089116Y-106640553D01*
X136092341Y-106640500D01*
X136979345Y-106640500D01*
X136982118Y-106640538D01*
X136982619Y-106640553D01*
X137037267Y-106642085D01*
X137037267Y-106642084D01*
X137037272Y-106642085D01*
X137152273Y-106618059D01*
X137258509Y-106567894D01*
X137350129Y-106494353D01*
X137422087Y-106401484D01*
X137439948Y-106361913D01*
X137481120Y-106316655D01*
X137541033Y-106304241D01*
X137575122Y-106314433D01*
X137644374Y-106349719D01*
X137777500Y-106370804D01*
X137910626Y-106349719D01*
X138030720Y-106288528D01*
X138049753Y-106269494D01*
X138104268Y-106241719D01*
X138119755Y-106240500D01*
X138179905Y-106240500D01*
X138186477Y-106240500D01*
X138186526Y-106240516D01*
X138227500Y-106240516D01*
X138296367Y-106240516D01*
X138296368Y-106240516D01*
X138431459Y-106213644D01*
X138558711Y-106160933D01*
X138673234Y-106084409D01*
X138704858Y-106052782D01*
X138759370Y-106025006D01*
X138819802Y-106034574D01*
X138863069Y-106077837D01*
X138869016Y-106092196D01*
X138900246Y-106188320D01*
X138899298Y-106188627D01*
X138905051Y-106237243D01*
X138896696Y-106289998D01*
X138896696Y-106290001D01*
X138917781Y-106423127D01*
X138917782Y-106423129D01*
X138977331Y-106540000D01*
X138978972Y-106543220D01*
X139005750Y-106569998D01*
X139033526Y-106624513D01*
X139023955Y-106684945D01*
X139005751Y-106710000D01*
X138955748Y-106760004D01*
X138928971Y-106786781D01*
X138915709Y-106812810D01*
X138872444Y-106856074D01*
X138812012Y-106865645D01*
X138757496Y-106837867D01*
X138739291Y-106812810D01*
X138729309Y-106793220D01*
X138726028Y-106786780D01*
X138630720Y-106691472D01*
X138630717Y-106691470D01*
X138510629Y-106630282D01*
X138510627Y-106630281D01*
X138377500Y-106609196D01*
X138244372Y-106630281D01*
X138244370Y-106630282D01*
X138124282Y-106691470D01*
X138028970Y-106786782D01*
X137967782Y-106906870D01*
X137967781Y-106906872D01*
X137946696Y-107039999D01*
X137946696Y-107040000D01*
X137967781Y-107173127D01*
X137967782Y-107173129D01*
X138028970Y-107293217D01*
X138028972Y-107293220D01*
X138124280Y-107388528D01*
X138244374Y-107449719D01*
X138377500Y-107470804D01*
X138510626Y-107449719D01*
X138630720Y-107388528D01*
X138726028Y-107293220D01*
X138739291Y-107267188D01*
X138782555Y-107223925D01*
X138842987Y-107214354D01*
X138897503Y-107242131D01*
X138915706Y-107267185D01*
X138928972Y-107293220D01*
X139024280Y-107388528D01*
X139144374Y-107449719D01*
X139277500Y-107470804D01*
X139410626Y-107449719D01*
X139530720Y-107388528D01*
X139626028Y-107293220D01*
X139687219Y-107173126D01*
X139708304Y-107040000D01*
X139687219Y-106906874D01*
X139626028Y-106786780D01*
X139599249Y-106760001D01*
X139571474Y-106705487D01*
X139581045Y-106645055D01*
X139599248Y-106619999D01*
X139676028Y-106543220D01*
X139737219Y-106423126D01*
X139758304Y-106290000D01*
X139755056Y-106269496D01*
X139750657Y-106241719D01*
X139737219Y-106156874D01*
X139676028Y-106036780D01*
X139580720Y-105941472D01*
X139482396Y-105891373D01*
X139439133Y-105848110D01*
X139429187Y-105816066D01*
X139428842Y-105813441D01*
X139428000Y-105800548D01*
X139428003Y-105759582D01*
X139428001Y-105759577D01*
X139428002Y-105752381D01*
X139428000Y-105752339D01*
X139428000Y-105450438D01*
X139427153Y-105444002D01*
X139427875Y-105443906D01*
X139426074Y-105430215D01*
X139426074Y-104343854D01*
X139428269Y-104323122D01*
X139429378Y-104317947D01*
X139426600Y-104291111D01*
X139426074Y-104280918D01*
X139426074Y-104261984D01*
X139424040Y-104254395D01*
X139421200Y-104239046D01*
X139414284Y-104172790D01*
X139362579Y-103983019D01*
X139280791Y-103804142D01*
X139280788Y-103804137D01*
X139280788Y-103804136D01*
X139171090Y-103640900D01*
X139171081Y-103640889D01*
X139036363Y-103497592D01*
X139036359Y-103497588D01*
X138880179Y-103378022D01*
X138829970Y-103351206D01*
X138787549Y-103307115D01*
X138779146Y-103246509D01*
X138788399Y-103218939D01*
X138837219Y-103123126D01*
X138858304Y-102990000D01*
X138837219Y-102856874D01*
X138776028Y-102736780D01*
X138680720Y-102641472D01*
X138680717Y-102641470D01*
X138560629Y-102580282D01*
X138560627Y-102580281D01*
X138475357Y-102566775D01*
X138420841Y-102538997D01*
X138393064Y-102484480D01*
X138402636Y-102424048D01*
X138445901Y-102380784D01*
X138460265Y-102374835D01*
X138460617Y-102374720D01*
X138460626Y-102374719D01*
X138460633Y-102374715D01*
X138460637Y-102374714D01*
X138524714Y-102342064D01*
X138580720Y-102313528D01*
X138676028Y-102218220D01*
X138737219Y-102098126D01*
X138758304Y-101965000D01*
X138737219Y-101831874D01*
X138676028Y-101711780D01*
X138592942Y-101628694D01*
X138565167Y-101574180D01*
X138574738Y-101513748D01*
X138618001Y-101470484D01*
X138680720Y-101438528D01*
X138776028Y-101343220D01*
X138837219Y-101223126D01*
X138858304Y-101090000D01*
X138837219Y-100956874D01*
X138776028Y-100836780D01*
X138680720Y-100741472D01*
X138658054Y-100729923D01*
X138614790Y-100686658D01*
X138605219Y-100626226D01*
X138621819Y-100588583D01*
X138620302Y-100587630D01*
X138623259Y-100582923D01*
X138685883Y-100452882D01*
X138718000Y-100312167D01*
X138718000Y-100240000D01*
X138718000Y-100183855D01*
X138718000Y-100144971D01*
X138718004Y-100144905D01*
X138718004Y-100142796D01*
X138718212Y-100142154D01*
X138719117Y-100130140D01*
X138719122Y-100130107D01*
X138721980Y-100130540D01*
X138736885Y-100084597D01*
X138746994Y-100072755D01*
X138818717Y-100001032D01*
X138843767Y-99982832D01*
X138930720Y-99938528D01*
X139026028Y-99843220D01*
X139087219Y-99723126D01*
X139108304Y-99590000D01*
X139087219Y-99456874D01*
X139026028Y-99336780D01*
X138930720Y-99241472D01*
X138930717Y-99241470D01*
X138810629Y-99180282D01*
X138810627Y-99180281D01*
X138677500Y-99159196D01*
X138544372Y-99180281D01*
X138544370Y-99180282D01*
X138424282Y-99241470D01*
X138328970Y-99336782D01*
X138284669Y-99423726D01*
X138266464Y-99448783D01*
X138197004Y-99518244D01*
X138142488Y-99546022D01*
X138082056Y-99536451D01*
X138038791Y-99493187D01*
X138028000Y-99448241D01*
X138028000Y-99280253D01*
X138027998Y-99280241D01*
X138020286Y-99241472D01*
X138016367Y-99221769D01*
X137972052Y-99155448D01*
X137972048Y-99155445D01*
X137905733Y-99111134D01*
X137905731Y-99111133D01*
X137905728Y-99111132D01*
X137905727Y-99111132D01*
X137847258Y-99099501D01*
X137847248Y-99099500D01*
X136807752Y-99099500D01*
X136807751Y-99099500D01*
X136807741Y-99099501D01*
X136749272Y-99111132D01*
X136749266Y-99111134D01*
X136681963Y-99156106D01*
X136623075Y-99172715D01*
X136565671Y-99151538D01*
X136531678Y-99100664D01*
X136527961Y-99073791D01*
X136527961Y-99038886D01*
X136528776Y-99029691D01*
X136528150Y-98997692D01*
X136530385Y-98974749D01*
X136531677Y-98968800D01*
X136562500Y-98915949D01*
X136618503Y-98891307D01*
X136623604Y-98890926D01*
X136625177Y-98890849D01*
X136629951Y-98890617D01*
X136634767Y-98890500D01*
X136979345Y-98890500D01*
X136982118Y-98890538D01*
X136984902Y-98890617D01*
X137037267Y-98892085D01*
X137037267Y-98892084D01*
X137037272Y-98892085D01*
X137152273Y-98868059D01*
X137258509Y-98817894D01*
X137350129Y-98744353D01*
X137422087Y-98651484D01*
X137470421Y-98544403D01*
X137474320Y-98524130D01*
X137482027Y-98500535D01*
X137482900Y-98498690D01*
X137483819Y-98479829D01*
X137485460Y-98466083D01*
X137489002Y-98447545D01*
X137489000Y-98447539D01*
X137488961Y-98442160D01*
X137487961Y-98432382D01*
X137487961Y-98397300D01*
X137488078Y-98392481D01*
X137488437Y-98385116D01*
X137489665Y-98359929D01*
X137489663Y-98359925D01*
X137489664Y-98359924D01*
X137489038Y-98355710D01*
X137487961Y-98341150D01*
X137487961Y-97343938D01*
X137487997Y-97341271D01*
X137488603Y-97318785D01*
X137489390Y-97289592D01*
X137465282Y-97174746D01*
X137415099Y-97068668D01*
X137415097Y-97068665D01*
X137415096Y-97068663D01*
X137341605Y-96977193D01*
X137341597Y-96977184D01*
X137248820Y-96905329D01*
X137141866Y-96857047D01*
X137121608Y-96853147D01*
X137098038Y-96845446D01*
X137096167Y-96844562D01*
X137096160Y-96844560D01*
X137077353Y-96843643D01*
X137063575Y-96841997D01*
X137045079Y-96838458D01*
X137039740Y-96838497D01*
X137029922Y-96839500D01*
X136994761Y-96839500D01*
X136989942Y-96839383D01*
X136984567Y-96839121D01*
X136957391Y-96837796D01*
X136957390Y-96837796D01*
X136957386Y-96837796D01*
X136953172Y-96838423D01*
X136938612Y-96839500D01*
X136136654Y-96839500D01*
X136132642Y-96839121D01*
X136092942Y-96839447D01*
X136078614Y-96838523D01*
X136014870Y-96829735D01*
X135987359Y-96821758D01*
X135935433Y-96798106D01*
X135911352Y-96782582D01*
X135868372Y-96745050D01*
X135849746Y-96723281D01*
X135819312Y-96675011D01*
X135807702Y-96648826D01*
X135792688Y-96595025D01*
X135789099Y-96571643D01*
X135788014Y-96538362D01*
X135787961Y-96535136D01*
X135787961Y-95889257D01*
X135788350Y-95885128D01*
X135788015Y-95845524D01*
X135788936Y-95831184D01*
X135795821Y-95781176D01*
X135797713Y-95767426D01*
X135805690Y-95739904D01*
X135829347Y-95687959D01*
X135844871Y-95663880D01*
X135882422Y-95620887D01*
X135904187Y-95602269D01*
X135952479Y-95571835D01*
X135978676Y-95560229D01*
X136003641Y-95553271D01*
X136032538Y-95545217D01*
X136055881Y-95541637D01*
X136086304Y-95540644D01*
X136089115Y-95540553D01*
X136092340Y-95540500D01*
X139177076Y-95540500D01*
X139190743Y-95541448D01*
X139194883Y-95542025D01*
X139275573Y-95553272D01*
X139294931Y-95557997D01*
X139373661Y-95585869D01*
X139391680Y-95594376D01*
X139463235Y-95637464D01*
X139479185Y-95649412D01*
X139538411Y-95703902D01*
X139543411Y-95708841D01*
X139561226Y-95727735D01*
X139563224Y-95729919D01*
X139576884Y-95745303D01*
X139582782Y-95750598D01*
X139842249Y-96025783D01*
X139845540Y-96029452D01*
X139902283Y-96095976D01*
X139911431Y-96108590D01*
X139968725Y-96202320D01*
X139975780Y-96216213D01*
X140017657Y-96317770D01*
X140022445Y-96332596D01*
X140047873Y-96439476D01*
X140050275Y-96454872D01*
X140058929Y-96568506D01*
X140059215Y-96576296D01*
X140059092Y-96620889D01*
X140059226Y-96622262D01*
X140059226Y-105266108D01*
X140059199Y-105266387D01*
X140059226Y-105314806D01*
X140059226Y-105355491D01*
X140059236Y-105355544D01*
X140074373Y-105392030D01*
X140074383Y-105392083D01*
X140074393Y-105392080D01*
X140089751Y-105429157D01*
X140089810Y-105429244D01*
X140089813Y-105429247D01*
X140089814Y-105429249D01*
X140117992Y-105457395D01*
X140118017Y-105457445D01*
X140118030Y-105457433D01*
X140118031Y-105457434D01*
X140146152Y-105485555D01*
X140146153Y-105485555D01*
X140146154Y-105485556D01*
X140146233Y-105485609D01*
X140146244Y-105485616D01*
X140146245Y-105485616D01*
X140146248Y-105485619D01*
X140178485Y-105498950D01*
X140182628Y-105500664D01*
X140182627Y-105500665D01*
X140182659Y-105500676D01*
X140219844Y-105516079D01*
X140219848Y-105516079D01*
X140219957Y-105516101D01*
X140258909Y-105516079D01*
X140299608Y-105516079D01*
X140309628Y-105516079D01*
X140309911Y-105516049D01*
X140475483Y-105515955D01*
X140533682Y-105534829D01*
X140569674Y-105584309D01*
X140573530Y-105629041D01*
X140572000Y-105639684D01*
X140572000Y-106865996D01*
X140571999Y-106865996D01*
X140577840Y-106920322D01*
X140589038Y-106971796D01*
X140589050Y-106971846D01*
X140596280Y-106998196D01*
X140596282Y-106998202D01*
X140645607Y-107084821D01*
X140645617Y-107084834D01*
X140691352Y-107137616D01*
X140691361Y-107137626D01*
X140691365Y-107137630D01*
X140691367Y-107137632D01*
X140719313Y-107164598D01*
X140724141Y-107169257D01*
X140724144Y-107169259D01*
X140774013Y-107195345D01*
X140812476Y-107215465D01*
X140812477Y-107215465D01*
X140812479Y-107215466D01*
X140812486Y-107215468D01*
X140879515Y-107235150D01*
X140919506Y-107240900D01*
X140951496Y-107245500D01*
X140951500Y-107245500D01*
X142533994Y-107245500D01*
X142585074Y-107238155D01*
X142605971Y-107235151D01*
X142673009Y-107215467D01*
X142724183Y-107192095D01*
X142737408Y-107187163D01*
X142755752Y-107181778D01*
X142782210Y-107174010D01*
X142810099Y-107170000D01*
X142844904Y-107170000D01*
X142869390Y-107173076D01*
X142871076Y-107173506D01*
X142871085Y-107173509D01*
X142888749Y-107178018D01*
X142906036Y-107181779D01*
X142996717Y-107185018D01*
X143065875Y-107175074D01*
X143110198Y-107164600D01*
X143134107Y-107150984D01*
X143194028Y-107138618D01*
X143238095Y-107154696D01*
X143274269Y-107178867D01*
X143315976Y-107187163D01*
X143332741Y-107190498D01*
X143332746Y-107190498D01*
X143332752Y-107190500D01*
X144662021Y-107190500D01*
X144720212Y-107209407D01*
X144732025Y-107219496D01*
X144871451Y-107358922D01*
X144899228Y-107413439D01*
X144889657Y-107473871D01*
X144846392Y-107517136D01*
X144816937Y-107526707D01*
X144794371Y-107530281D01*
X144794370Y-107530282D01*
X144674282Y-107591470D01*
X144578970Y-107686782D01*
X144514243Y-107813816D01*
X144511336Y-107812334D01*
X144483790Y-107850213D01*
X144425590Y-107869094D01*
X144387753Y-107861559D01*
X144273319Y-107814163D01*
X144273314Y-107814161D01*
X144217934Y-107803148D01*
X144149287Y-107789496D01*
X144149284Y-107789496D01*
X144086061Y-107789500D01*
X144069755Y-107789500D01*
X144011564Y-107770593D01*
X143999757Y-107760509D01*
X143980720Y-107741472D01*
X143980717Y-107741470D01*
X143860629Y-107680282D01*
X143860627Y-107680281D01*
X143727500Y-107659196D01*
X143594372Y-107680281D01*
X143594370Y-107680282D01*
X143474282Y-107741470D01*
X143378970Y-107836782D01*
X143317782Y-107956870D01*
X143317781Y-107956872D01*
X143296696Y-108089999D01*
X143296696Y-108090000D01*
X143317781Y-108223127D01*
X143317782Y-108223129D01*
X143378970Y-108343217D01*
X143378972Y-108343220D01*
X143474280Y-108438528D01*
X143594374Y-108499719D01*
X143727500Y-108520804D01*
X143860626Y-108499719D01*
X143980720Y-108438528D01*
X143995886Y-108423361D01*
X144050401Y-108395586D01*
X144110833Y-108405157D01*
X144135892Y-108423363D01*
X144168986Y-108456457D01*
X144177528Y-108466199D01*
X144194620Y-108488477D01*
X144207538Y-108510853D01*
X144211659Y-108520804D01*
X144215783Y-108530759D01*
X144222470Y-108555720D01*
X144225625Y-108579686D01*
X144226153Y-108583693D01*
X144227000Y-108596614D01*
X144227000Y-108935975D01*
X144227011Y-108936142D01*
X144227011Y-108970649D01*
X144227011Y-108970652D01*
X144227010Y-108970652D01*
X144252241Y-109129959D01*
X144302082Y-109283362D01*
X144365928Y-109408674D01*
X144375309Y-109427085D01*
X144470113Y-109557581D01*
X144470115Y-109557583D01*
X144470117Y-109557585D01*
X144496682Y-109584152D01*
X144496698Y-109584169D01*
X144527139Y-109614611D01*
X144527142Y-109614613D01*
X144566418Y-109653893D01*
X144566443Y-109653914D01*
X145598517Y-110685988D01*
X145598519Y-110685991D01*
X145603175Y-110690647D01*
X145603182Y-110690660D01*
X145702629Y-110790106D01*
X145702635Y-110790112D01*
X145863869Y-110907252D01*
X145863875Y-110907256D01*
X146041454Y-110997736D01*
X146231001Y-111059323D01*
X146309740Y-111071793D01*
X146427846Y-111090500D01*
X146427849Y-111090500D01*
X147316190Y-111090500D01*
X147316191Y-111090500D01*
X147490166Y-111055894D01*
X147654047Y-110988013D01*
X147801535Y-110889464D01*
X147926964Y-110764035D01*
X148025513Y-110616547D01*
X148093394Y-110452666D01*
X148128000Y-110278691D01*
X148128000Y-110190000D01*
X148128000Y-110142405D01*
X148128000Y-110133280D01*
X148128000Y-110126715D01*
X148127984Y-110126491D01*
X148127987Y-110095468D01*
X148103781Y-109942589D01*
X148055955Y-109795379D01*
X147985688Y-109657463D01*
X147985686Y-109657459D01*
X147894713Y-109532243D01*
X147894707Y-109532236D01*
X147870141Y-109507669D01*
X147870134Y-109507663D01*
X147870129Y-109507658D01*
X147844559Y-109482087D01*
X147836042Y-109472374D01*
X147787163Y-109408673D01*
X147774242Y-109386291D01*
X147746027Y-109318168D01*
X147739339Y-109293205D01*
X147739060Y-109291088D01*
X147728845Y-109213464D01*
X147728000Y-109200548D01*
X147728003Y-109159582D01*
X147728001Y-109159577D01*
X147728002Y-109152381D01*
X147728000Y-109152339D01*
X147728000Y-108786997D01*
X147728003Y-108786948D01*
X147728002Y-108778998D01*
X147728003Y-108778997D01*
X147728001Y-108755496D01*
X147733035Y-108739999D01*
X150896696Y-108739999D01*
X150896696Y-108740000D01*
X150917781Y-108873127D01*
X150917782Y-108873129D01*
X150978717Y-108992720D01*
X150978972Y-108993220D01*
X151074280Y-109088528D01*
X151074282Y-109088529D01*
X151194240Y-109149651D01*
X151194374Y-109149719D01*
X151327500Y-109170804D01*
X151460626Y-109149719D01*
X151580720Y-109088528D01*
X151676028Y-108993220D01*
X151737219Y-108873126D01*
X151758304Y-108740000D01*
X151737219Y-108606874D01*
X151676028Y-108486780D01*
X151580720Y-108391472D01*
X151580717Y-108391470D01*
X151460629Y-108330282D01*
X151460627Y-108330281D01*
X151327500Y-108309196D01*
X151194372Y-108330281D01*
X151194370Y-108330282D01*
X151074282Y-108391470D01*
X150978970Y-108486782D01*
X150917782Y-108606870D01*
X150917781Y-108606872D01*
X150896696Y-108739999D01*
X147733035Y-108739999D01*
X147746903Y-108697306D01*
X147756993Y-108685490D01*
X147784700Y-108657784D01*
X147854952Y-108552641D01*
X147903339Y-108435812D01*
X147928004Y-108311787D01*
X147928000Y-108248561D01*
X147928000Y-108241472D01*
X147928000Y-107973539D01*
X147928004Y-107973478D01*
X147928003Y-107965536D01*
X147928004Y-107965535D01*
X147928000Y-107917940D01*
X147928000Y-107878399D01*
X147928000Y-107871576D01*
X147927989Y-107871437D01*
X147927988Y-107833108D01*
X147894880Y-107666707D01*
X147829948Y-107509960D01*
X147735686Y-107368892D01*
X147615717Y-107248921D01*
X147528286Y-107190498D01*
X147474648Y-107154656D01*
X147465786Y-107150985D01*
X147419264Y-107111244D01*
X147415515Y-107104556D01*
X147415462Y-107104452D01*
X147415253Y-107104043D01*
X147405623Y-107043622D01*
X147433347Y-106989078D01*
X147487833Y-106961248D01*
X147560626Y-106949719D01*
X147680720Y-106888528D01*
X147776028Y-106793220D01*
X147837219Y-106673126D01*
X147858304Y-106540000D01*
X147837219Y-106406874D01*
X147776028Y-106286780D01*
X147680720Y-106191472D01*
X147680717Y-106191470D01*
X147677830Y-106189999D01*
X149946696Y-106189999D01*
X149946696Y-106190000D01*
X149967781Y-106323127D01*
X149967782Y-106323129D01*
X150028970Y-106443217D01*
X150028974Y-106443222D01*
X150043249Y-106457498D01*
X150071026Y-106512015D01*
X150061453Y-106572447D01*
X150043249Y-106597502D01*
X150028974Y-106611777D01*
X150028970Y-106611782D01*
X149967782Y-106731870D01*
X149967781Y-106731872D01*
X149946696Y-106864999D01*
X149946696Y-106865000D01*
X149967781Y-106998127D01*
X149967782Y-106998129D01*
X150028970Y-107118217D01*
X150028972Y-107118220D01*
X150124280Y-107213528D01*
X150128087Y-107215468D01*
X150229597Y-107267190D01*
X150244374Y-107274719D01*
X150377500Y-107295804D01*
X150510626Y-107274719D01*
X150630720Y-107213528D01*
X150726028Y-107118220D01*
X150787219Y-106998126D01*
X150808304Y-106865000D01*
X150787219Y-106731874D01*
X150776066Y-106709986D01*
X150726029Y-106611782D01*
X150726028Y-106611780D01*
X150711749Y-106597501D01*
X150683974Y-106542987D01*
X150693545Y-106482555D01*
X150711750Y-106457498D01*
X150726028Y-106443220D01*
X150787219Y-106323126D01*
X150808304Y-106190000D01*
X150787219Y-106056874D01*
X150726028Y-105936780D01*
X150630720Y-105841472D01*
X150630717Y-105841470D01*
X150510629Y-105780282D01*
X150510627Y-105780281D01*
X150377500Y-105759196D01*
X150244372Y-105780281D01*
X150244370Y-105780282D01*
X150124282Y-105841470D01*
X150028970Y-105936782D01*
X149967782Y-106056870D01*
X149967781Y-106056872D01*
X149946696Y-106189999D01*
X147677830Y-106189999D01*
X147560629Y-106130282D01*
X147560627Y-106130281D01*
X147427500Y-106109196D01*
X147294374Y-106130281D01*
X147196943Y-106179924D01*
X147136513Y-106189495D01*
X147081997Y-106161718D01*
X147054219Y-106107201D01*
X147053000Y-106091714D01*
X147053000Y-105611185D01*
X147071907Y-105552994D01*
X147121407Y-105517030D01*
X147151943Y-105512185D01*
X150136559Y-105510500D01*
X150136559Y-105510509D01*
X150136599Y-105510499D01*
X150177407Y-105510495D01*
X150177410Y-105510493D01*
X150177488Y-105510478D01*
X150177490Y-105510477D01*
X150177496Y-105510477D01*
X150213845Y-105495395D01*
X150213891Y-105495392D01*
X150213886Y-105495379D01*
X150216576Y-105494264D01*
X150251096Y-105479962D01*
X150251099Y-105479958D01*
X150251110Y-105479954D01*
X150251156Y-105479924D01*
X150251166Y-105479913D01*
X150251170Y-105479912D01*
X150279976Y-105451073D01*
X150279978Y-105451071D01*
X150279982Y-105451075D01*
X150280004Y-105451044D01*
X150304271Y-105426772D01*
X150358785Y-105398990D01*
X150389767Y-105398989D01*
X150394373Y-105399718D01*
X150394374Y-105399719D01*
X150527500Y-105420804D01*
X150660626Y-105399719D01*
X150780720Y-105338528D01*
X150876028Y-105243220D01*
X150937219Y-105123126D01*
X150958304Y-104990000D01*
X150937219Y-104856874D01*
X150876028Y-104736780D01*
X150876026Y-104736778D01*
X150875093Y-104734946D01*
X150865521Y-104674514D01*
X150875093Y-104645054D01*
X150876026Y-104643221D01*
X150876028Y-104643220D01*
X150937219Y-104523126D01*
X150958304Y-104390000D01*
X150957571Y-104385375D01*
X150954335Y-104364945D01*
X150937219Y-104256874D01*
X150876028Y-104136780D01*
X150780720Y-104041472D01*
X150780717Y-104041470D01*
X150660629Y-103980282D01*
X150660627Y-103980281D01*
X150527500Y-103959196D01*
X150527498Y-103959196D01*
X150452302Y-103971105D01*
X150391870Y-103961533D01*
X150348606Y-103918268D01*
X150337816Y-103873340D01*
X150337742Y-103289999D01*
X151296696Y-103289999D01*
X151296696Y-103290000D01*
X151317781Y-103423127D01*
X151317782Y-103423129D01*
X151355721Y-103497588D01*
X151378972Y-103543220D01*
X151474280Y-103638528D01*
X151594374Y-103699719D01*
X151727500Y-103720804D01*
X151860626Y-103699719D01*
X151980720Y-103638528D01*
X152076028Y-103543220D01*
X152137219Y-103423126D01*
X152158304Y-103290000D01*
X152137219Y-103156874D01*
X152076028Y-103036780D01*
X151980720Y-102941472D01*
X151980717Y-102941470D01*
X151860629Y-102880282D01*
X151860627Y-102880281D01*
X151727500Y-102859196D01*
X151594372Y-102880281D01*
X151594370Y-102880282D01*
X151474282Y-102941470D01*
X151378970Y-103036782D01*
X151317782Y-103156870D01*
X151317781Y-103156872D01*
X151296696Y-103289999D01*
X150337742Y-103289999D01*
X150336899Y-96637464D01*
X150337024Y-96636178D01*
X150336999Y-96627305D01*
X150337001Y-96627303D01*
X150336903Y-96591542D01*
X150337222Y-96583332D01*
X150338571Y-96566581D01*
X150346575Y-96467178D01*
X150349246Y-96450985D01*
X150376671Y-96341993D01*
X150381984Y-96326460D01*
X150427064Y-96223498D01*
X150434872Y-96209062D01*
X150496357Y-96114979D01*
X150506443Y-96102035D01*
X150584180Y-96017750D01*
X150586900Y-96014917D01*
X150589904Y-96011913D01*
X150592909Y-96009034D01*
X150617594Y-95986374D01*
X150617597Y-95986366D01*
X150618949Y-95984521D01*
X150628839Y-95972978D01*
X152241137Y-94360680D01*
X152241157Y-94360700D01*
X152241264Y-94360553D01*
X152298348Y-94303683D01*
X152410070Y-94150517D01*
X152496456Y-93981760D01*
X152555380Y-93801568D01*
X152585392Y-93614376D01*
X152585494Y-93560534D01*
X152585496Y-93560529D01*
X152585573Y-93519585D01*
X152585648Y-93479704D01*
X152585647Y-93479701D01*
X152585662Y-93471775D01*
X152585346Y-93468525D01*
X152585346Y-90039500D01*
X152604253Y-89981309D01*
X152653753Y-89945345D01*
X152684346Y-89940500D01*
X153487961Y-89940500D01*
X153546152Y-89959407D01*
G37*
%TD.AperFunction*%
%TA.AperFunction,Conductor*%
G36*
X138237984Y-104293374D02*
G01*
X138250397Y-104296432D01*
X138302376Y-104328710D01*
X138325455Y-104385375D01*
X138325716Y-104392558D01*
X138325716Y-105486790D01*
X138325714Y-105486820D01*
X138325715Y-105528263D01*
X138322341Y-105553889D01*
X138319752Y-105563551D01*
X138286428Y-105614865D01*
X138249760Y-105633551D01*
X138246722Y-105634365D01*
X138240156Y-105636124D01*
X138214528Y-105639500D01*
X138119755Y-105639500D01*
X138061564Y-105620593D01*
X138049757Y-105610509D01*
X138030720Y-105591472D01*
X138030717Y-105591470D01*
X137910629Y-105530282D01*
X137910627Y-105530281D01*
X137777500Y-105509196D01*
X137644372Y-105530281D01*
X137644370Y-105530282D01*
X137631906Y-105536633D01*
X137571474Y-105546205D01*
X137516958Y-105518428D01*
X137489180Y-105463911D01*
X137487961Y-105448424D01*
X137487961Y-105093938D01*
X137487997Y-105091271D01*
X137488113Y-105086969D01*
X137489390Y-105039592D01*
X137465282Y-104924746D01*
X137415099Y-104818668D01*
X137415097Y-104818665D01*
X137415096Y-104818663D01*
X137341605Y-104727193D01*
X137341597Y-104727184D01*
X137248820Y-104655329D01*
X137141866Y-104607047D01*
X137121608Y-104603147D01*
X137098038Y-104595446D01*
X137096167Y-104594562D01*
X137096160Y-104594560D01*
X137077353Y-104593643D01*
X137063575Y-104591997D01*
X137045079Y-104588458D01*
X137039740Y-104588497D01*
X137029922Y-104589500D01*
X136994761Y-104589500D01*
X136989942Y-104589383D01*
X136985765Y-104589179D01*
X136957391Y-104587796D01*
X136957390Y-104587796D01*
X136957386Y-104587796D01*
X136953172Y-104588423D01*
X136938612Y-104589500D01*
X136640352Y-104589500D01*
X136615074Y-104586218D01*
X136604314Y-104583376D01*
X136552882Y-104550237D01*
X136534444Y-104514996D01*
X136531810Y-104505828D01*
X136527961Y-104478491D01*
X136527961Y-104406208D01*
X136546868Y-104348017D01*
X136596368Y-104312053D01*
X136657554Y-104312053D01*
X136681964Y-104323893D01*
X136682946Y-104324549D01*
X136682948Y-104324552D01*
X136749269Y-104368867D01*
X136793731Y-104377711D01*
X136807741Y-104380498D01*
X136807746Y-104380498D01*
X136807752Y-104380500D01*
X136807753Y-104380500D01*
X137847247Y-104380500D01*
X137847248Y-104380500D01*
X137905731Y-104368867D01*
X137972052Y-104324552D01*
X137972056Y-104324545D01*
X137977107Y-104319496D01*
X138031624Y-104291719D01*
X138047111Y-104290500D01*
X138214303Y-104290500D01*
X138237984Y-104293374D01*
G37*
%TD.AperFunction*%
%TD*%
%TA.AperFunction,Conductor*%
%TO.N,VBUS*%
G36*
X143044981Y-105534190D02*
G01*
X143090765Y-105586968D01*
X143102000Y-105638543D01*
X143102000Y-106809381D01*
X143082315Y-106876420D01*
X143029511Y-106922175D01*
X142960353Y-106932119D01*
X142943066Y-106928358D01*
X142895869Y-106914500D01*
X142895867Y-106914500D01*
X142759133Y-106914500D01*
X142759132Y-106914500D01*
X142627941Y-106953020D01*
X142627934Y-106953024D01*
X142601027Y-106970316D01*
X142533989Y-106990000D01*
X140951500Y-106990000D01*
X140884461Y-106970315D01*
X140838706Y-106917511D01*
X140827500Y-106866000D01*
X140827500Y-105639687D01*
X140847185Y-105572648D01*
X140899989Y-105526893D01*
X140951426Y-105515687D01*
X142977930Y-105514543D01*
X143044981Y-105534190D01*
G37*
%TD.AperFunction*%
%TD*%
M02*
