%TF.GenerationSoftware,KiCad,Pcbnew,8.0.8*%
%TF.CreationDate,2025-02-21T00:18:55+11:00*%
%TF.ProjectId,FrameworkDongleHiderRetrofit,4672616d-6577-46f7-926b-446f6e676c65,rev?*%
%TF.SameCoordinates,Original*%
%TF.FileFunction,Copper,L2,Inr*%
%TF.FilePolarity,Positive*%
%FSLAX46Y46*%
G04 Gerber Fmt 4.6, Leading zero omitted, Abs format (unit mm)*
G04 Created by KiCad (PCBNEW 8.0.8) date 2025-02-21 00:18:55*
%MOMM*%
%LPD*%
G01*
G04 APERTURE LIST*
%TA.AperFunction,ComponentPad*%
%ADD10O,2.500000X1.300000*%
%TD*%
%TA.AperFunction,ViaPad*%
%ADD11C,0.450000*%
%TD*%
G04 APERTURE END LIST*
D10*
%TO.N,GND*%
%TO.C,J3*%
X152447500Y-109700000D03*
X157947500Y-109700000D03*
X157947500Y-93800000D03*
%TD*%
D11*
%TO.N,GND*%
X154777500Y-111390000D03*
X156227500Y-112290000D03*
X153127500Y-113090000D03*
X155677500Y-111690000D03*
X156427500Y-113090000D03*
X153327500Y-112290000D03*
X153877500Y-111690000D03*
X156227500Y-91190000D03*
X155677500Y-91790000D03*
X156427500Y-90390000D03*
X153127500Y-90390000D03*
X153327500Y-91190000D03*
X153877500Y-91790000D03*
X154777500Y-92090000D03*
X142827500Y-107390000D03*
X139727500Y-97940000D03*
%TO.N,VBUS*%
X138427500Y-102990000D03*
X150527500Y-104990000D03*
X140777500Y-110890000D03*
X150527500Y-104390000D03*
X150527500Y-104390000D03*
X147027500Y-108190000D03*
X142777500Y-106640000D03*
X142777500Y-105890000D03*
X147427500Y-106540000D03*
X150527500Y-104990000D03*
X138677500Y-99590000D03*
X138327500Y-99940000D03*
%TO.N,GND*%
X149827500Y-110390000D03*
X142827500Y-111190000D03*
X138077500Y-104540000D03*
X152477500Y-111240000D03*
X144427500Y-111190000D03*
X139737500Y-102090000D03*
X150677500Y-99690000D03*
X149127500Y-108140000D03*
X143627500Y-110490000D03*
X149127500Y-109040000D03*
X136077500Y-95840000D03*
X136777500Y-95840000D03*
X136777500Y-106940000D03*
X136077500Y-107640000D03*
X151477500Y-111240000D03*
X140427500Y-113090000D03*
X143627500Y-111890000D03*
X136077500Y-96540000D03*
X136077500Y-106940000D03*
X136777500Y-96540000D03*
X140327500Y-107990000D03*
X136777500Y-107640000D03*
X150677500Y-97960002D03*
%TO.N,RX+*%
X152127500Y-97790000D03*
X137777500Y-105940000D03*
%TO.N,Net-(P1-D+)*%
X138327500Y-101965000D03*
X141627500Y-108590000D03*
%TO.N,RX-*%
X151927500Y-96090000D03*
X139327500Y-106290000D03*
%TO.N,TX+*%
X138377500Y-107040000D03*
X150377500Y-106865000D03*
%TO.N,Net-(P1-D-)*%
X138427500Y-101090000D03*
X142227500Y-107990000D03*
%TO.N,TX-*%
X139277500Y-107040000D03*
X150377500Y-106190000D03*
%TO.N,Net-(U1-DP1+)*%
X143727500Y-108090000D03*
X147066646Y-107357107D03*
%TO.N,Net-(U1-DP3+)*%
X146561584Y-108768290D03*
%TO.N,Net-(U1-DM1-)*%
X147227500Y-110190000D03*
X144927500Y-107940000D03*
%TO.N,Net-(U1-DM3-)*%
X146677500Y-109690000D03*
%TO.N,Net-(J3-D+)*%
X152232500Y-101567377D03*
X152227500Y-107590000D03*
%TO.N,Net-(J3-D-)*%
X151727500Y-103290000D03*
X151327500Y-108740000D03*
%TD*%
%TA.AperFunction,Conductor*%
%TO.N,VBUS*%
G36*
X152501627Y-94609685D02*
G01*
X152547382Y-94662489D01*
X152557326Y-94731647D01*
X152528301Y-94795203D01*
X152522269Y-94801681D01*
X152487525Y-94836424D01*
X152487524Y-94836425D01*
X152457000Y-94910116D01*
X152457000Y-95642509D01*
X152437315Y-95709548D01*
X152384511Y-95755303D01*
X152315353Y-95765247D01*
X152251797Y-95736222D01*
X152245319Y-95729744D01*
X152242086Y-95726942D01*
X152127059Y-95653021D01*
X151995868Y-95614500D01*
X151995867Y-95614500D01*
X151859133Y-95614500D01*
X151859132Y-95614500D01*
X151727940Y-95653021D01*
X151612913Y-95726942D01*
X151612909Y-95726946D01*
X151523372Y-95830278D01*
X151523367Y-95830285D01*
X151466570Y-95954654D01*
X151466568Y-95954662D01*
X151447110Y-96090000D01*
X151466568Y-96225337D01*
X151466570Y-96225345D01*
X151523367Y-96349714D01*
X151523372Y-96349721D01*
X151612909Y-96453053D01*
X151612913Y-96453057D01*
X151673479Y-96491979D01*
X151727939Y-96526978D01*
X151763740Y-96537490D01*
X151859132Y-96565500D01*
X151859133Y-96565500D01*
X151995867Y-96565500D01*
X152127061Y-96526978D01*
X152242089Y-96453055D01*
X152242091Y-96453052D01*
X152248789Y-96447249D01*
X152250422Y-96449134D01*
X152298050Y-96418517D01*
X152367920Y-96418508D01*
X152426703Y-96456275D01*
X152455736Y-96519827D01*
X152457000Y-96537490D01*
X152457000Y-97225530D01*
X152437315Y-97292569D01*
X152384511Y-97338324D01*
X152315353Y-97348268D01*
X152298066Y-97344507D01*
X152195870Y-97314500D01*
X152195867Y-97314500D01*
X152059133Y-97314500D01*
X152059132Y-97314500D01*
X151927940Y-97353021D01*
X151812913Y-97426942D01*
X151812909Y-97426946D01*
X151723372Y-97530278D01*
X151723367Y-97530285D01*
X151666570Y-97654654D01*
X151666568Y-97654662D01*
X151647110Y-97790000D01*
X151666568Y-97925337D01*
X151666570Y-97925345D01*
X151723367Y-98049714D01*
X151723372Y-98049721D01*
X151812909Y-98153053D01*
X151812913Y-98153057D01*
X151873479Y-98191979D01*
X151927939Y-98226978D01*
X151993536Y-98246239D01*
X152059132Y-98265500D01*
X152059133Y-98265500D01*
X152195867Y-98265500D01*
X152298065Y-98235492D01*
X152367935Y-98235492D01*
X152426713Y-98273266D01*
X152455738Y-98336822D01*
X152457000Y-98354469D01*
X152457000Y-100972077D01*
X152437315Y-101039116D01*
X152384511Y-101084871D01*
X152315353Y-101094815D01*
X152303759Y-101092292D01*
X152300868Y-101091877D01*
X152300867Y-101091877D01*
X152164133Y-101091877D01*
X152164132Y-101091877D01*
X152032940Y-101130398D01*
X151917913Y-101204319D01*
X151917909Y-101204323D01*
X151828372Y-101307655D01*
X151828367Y-101307662D01*
X151771570Y-101432031D01*
X151771568Y-101432039D01*
X151752110Y-101567377D01*
X151771568Y-101702714D01*
X151771570Y-101702722D01*
X151828367Y-101827091D01*
X151828372Y-101827098D01*
X151917909Y-101930430D01*
X151917913Y-101930434D01*
X151978479Y-101969356D01*
X152032939Y-102004355D01*
X152098536Y-102023616D01*
X152164132Y-102042877D01*
X152164133Y-102042877D01*
X152300868Y-102042877D01*
X152309646Y-102041615D01*
X152309946Y-102043702D01*
X152367916Y-102043693D01*
X152426700Y-102081458D01*
X152455735Y-102145010D01*
X152457000Y-102162676D01*
X152457000Y-106996168D01*
X152437315Y-107063207D01*
X152384511Y-107108962D01*
X152315353Y-107118906D01*
X152298067Y-107115146D01*
X152295867Y-107114500D01*
X152159133Y-107114500D01*
X152159132Y-107114500D01*
X152027940Y-107153021D01*
X151912913Y-107226942D01*
X151912909Y-107226946D01*
X151823372Y-107330278D01*
X151823367Y-107330285D01*
X151766570Y-107454654D01*
X151766568Y-107454662D01*
X151747110Y-107590000D01*
X151766568Y-107725337D01*
X151766570Y-107725345D01*
X151823367Y-107849714D01*
X151823372Y-107849721D01*
X151912909Y-107953053D01*
X151912913Y-107953057D01*
X151956740Y-107981222D01*
X152027939Y-108026978D01*
X152093536Y-108046239D01*
X152159132Y-108065500D01*
X152159133Y-108065500D01*
X152295863Y-108065500D01*
X152295867Y-108065500D01*
X152298060Y-108064855D01*
X152300348Y-108064855D01*
X152304646Y-108064238D01*
X152304734Y-108064855D01*
X152367926Y-108064851D01*
X152426707Y-108102621D01*
X152455737Y-108166175D01*
X152457000Y-108183831D01*
X152457000Y-108539925D01*
X152456961Y-108579687D01*
X152456999Y-108579878D01*
X152457000Y-108579880D01*
X152457000Y-108579882D01*
X152472281Y-108616774D01*
X152472304Y-108616890D01*
X152472325Y-108616881D01*
X152472326Y-108616883D01*
X152476984Y-108628160D01*
X152479796Y-108654559D01*
X152481719Y-108664223D01*
X152481719Y-108664224D01*
X152480827Y-108664224D01*
X152484386Y-108697634D01*
X152453051Y-108760083D01*
X152392928Y-108795678D01*
X152362377Y-108799500D01*
X151923892Y-108799500D01*
X151856853Y-108779815D01*
X151811098Y-108727011D01*
X151801154Y-108693147D01*
X151792498Y-108632944D01*
X151788431Y-108604658D01*
X151758813Y-108539803D01*
X151731632Y-108480285D01*
X151731627Y-108480278D01*
X151642090Y-108376946D01*
X151642086Y-108376942D01*
X151527059Y-108303021D01*
X151395868Y-108264500D01*
X151395867Y-108264500D01*
X151259133Y-108264500D01*
X151259132Y-108264500D01*
X151127940Y-108303021D01*
X151012913Y-108376942D01*
X151012909Y-108376946D01*
X150923372Y-108480278D01*
X150923367Y-108480285D01*
X150866570Y-108604654D01*
X150866568Y-108604662D01*
X150847110Y-108740000D01*
X150866568Y-108875337D01*
X150866570Y-108875345D01*
X150923367Y-108999714D01*
X150923372Y-108999721D01*
X151012909Y-109103053D01*
X151019616Y-109108865D01*
X151018569Y-109110073D01*
X151057711Y-109155244D01*
X151067655Y-109224402D01*
X151051170Y-109267443D01*
X151052360Y-109268079D01*
X151049483Y-109273460D01*
X150981606Y-109437332D01*
X150981603Y-109437341D01*
X150947000Y-109611304D01*
X150947000Y-109788695D01*
X150981603Y-109962658D01*
X150981606Y-109962667D01*
X151049483Y-110126540D01*
X151049490Y-110126553D01*
X151148035Y-110274034D01*
X151148038Y-110274038D01*
X151273461Y-110399461D01*
X151273465Y-110399464D01*
X151420946Y-110498009D01*
X151420959Y-110498016D01*
X151488372Y-110525939D01*
X151542776Y-110569779D01*
X151564841Y-110636073D01*
X151547562Y-110703773D01*
X151496425Y-110751384D01*
X151440920Y-110764500D01*
X151409132Y-110764500D01*
X151277940Y-110803021D01*
X151162913Y-110876942D01*
X151162909Y-110876946D01*
X151073372Y-110980278D01*
X151073367Y-110980285D01*
X151016570Y-111104654D01*
X151016568Y-111104662D01*
X150997110Y-111240000D01*
X151016568Y-111375337D01*
X151016570Y-111375345D01*
X151073367Y-111499714D01*
X151073372Y-111499721D01*
X151162909Y-111603053D01*
X151162913Y-111603057D01*
X151209415Y-111632941D01*
X151277939Y-111676978D01*
X151343536Y-111696239D01*
X151409132Y-111715500D01*
X151409133Y-111715500D01*
X151545867Y-111715500D01*
X151677061Y-111676978D01*
X151792089Y-111603055D01*
X151858038Y-111526945D01*
X151883787Y-111497229D01*
X151942565Y-111459454D01*
X152012434Y-111459454D01*
X152071213Y-111497228D01*
X152071213Y-111497229D01*
X152162909Y-111603053D01*
X152162913Y-111603057D01*
X152209415Y-111632941D01*
X152277939Y-111676978D01*
X152343536Y-111696239D01*
X152409132Y-111715500D01*
X152409133Y-111715500D01*
X152545867Y-111715500D01*
X152677061Y-111676978D01*
X152792089Y-111603055D01*
X152881630Y-111499718D01*
X152938431Y-111375342D01*
X152957890Y-111240000D01*
X152938431Y-111104658D01*
X152926177Y-111077827D01*
X152881632Y-110980285D01*
X152881627Y-110980278D01*
X152792090Y-110876946D01*
X152792089Y-110876945D01*
X152754915Y-110853055D01*
X152717196Y-110828814D01*
X152671442Y-110776012D01*
X152661498Y-110706854D01*
X152690522Y-110643298D01*
X152749300Y-110605523D01*
X152784236Y-110600500D01*
X153136193Y-110600500D01*
X153136194Y-110600499D01*
X153194182Y-110588964D01*
X153310158Y-110565896D01*
X153310161Y-110565894D01*
X153310166Y-110565894D01*
X153474047Y-110498013D01*
X153621535Y-110399464D01*
X153746964Y-110274035D01*
X153845513Y-110126547D01*
X153913394Y-109962666D01*
X153915313Y-109953022D01*
X153936464Y-109846682D01*
X153948000Y-109788691D01*
X153948000Y-109611309D01*
X153948000Y-109611306D01*
X153947999Y-109611304D01*
X153913396Y-109437341D01*
X153913393Y-109437332D01*
X153845516Y-109273459D01*
X153845509Y-109273446D01*
X153746964Y-109125965D01*
X153746961Y-109125961D01*
X153621538Y-109000538D01*
X153621534Y-109000535D01*
X153573695Y-108968570D01*
X153528890Y-108914958D01*
X153520183Y-108845633D01*
X153550337Y-108782606D01*
X153609780Y-108745886D01*
X153642707Y-108741468D01*
X156747971Y-108744518D01*
X156814990Y-108764268D01*
X156860693Y-108817117D01*
X156870568Y-108886286D01*
X156841481Y-108949813D01*
X156816740Y-108971619D01*
X156773467Y-109000533D01*
X156773461Y-109000538D01*
X156648038Y-109125961D01*
X156648035Y-109125965D01*
X156549490Y-109273446D01*
X156549483Y-109273459D01*
X156481606Y-109437332D01*
X156481603Y-109437341D01*
X156447000Y-109611304D01*
X156447000Y-109788695D01*
X156481603Y-109962658D01*
X156481606Y-109962667D01*
X156549483Y-110126540D01*
X156549490Y-110126553D01*
X156648035Y-110274034D01*
X156648038Y-110274038D01*
X156773461Y-110399461D01*
X156773465Y-110399464D01*
X156920946Y-110498009D01*
X156920959Y-110498016D01*
X157043863Y-110548923D01*
X157084834Y-110565894D01*
X157084836Y-110565894D01*
X157084841Y-110565896D01*
X157258804Y-110600499D01*
X157258807Y-110600500D01*
X157258809Y-110600500D01*
X158636193Y-110600500D01*
X158636194Y-110600499D01*
X158694182Y-110588964D01*
X158810158Y-110565896D01*
X158810161Y-110565894D01*
X158810166Y-110565894D01*
X158974047Y-110498013D01*
X159121535Y-110399464D01*
X159246964Y-110274035D01*
X159345513Y-110126547D01*
X159413394Y-109962666D01*
X159415313Y-109953022D01*
X159436464Y-109846682D01*
X159448000Y-109788691D01*
X159448000Y-109611309D01*
X159448000Y-109611306D01*
X159447999Y-109611304D01*
X159413396Y-109437341D01*
X159413393Y-109437332D01*
X159345516Y-109273459D01*
X159345509Y-109273446D01*
X159246964Y-109125965D01*
X159246961Y-109125961D01*
X159121538Y-109000538D01*
X159121534Y-109000535D01*
X159081792Y-108973980D01*
X159036987Y-108920368D01*
X159028280Y-108851043D01*
X159058435Y-108788015D01*
X159117878Y-108751296D01*
X159150800Y-108746878D01*
X162513116Y-108750181D01*
X162580135Y-108769931D01*
X162625838Y-108822780D01*
X162636993Y-108874183D01*
X162636927Y-112688598D01*
X162636741Y-112690534D01*
X162636925Y-112732624D01*
X162636926Y-112733165D01*
X162636926Y-112736034D01*
X162636446Y-112746936D01*
X162625034Y-112876236D01*
X162620925Y-112898755D01*
X162587459Y-113018328D01*
X162579282Y-113039705D01*
X162526713Y-113146409D01*
X162524405Y-113151093D01*
X162512437Y-113170604D01*
X162438022Y-113270005D01*
X162422671Y-113286986D01*
X162331253Y-113371014D01*
X162313043Y-113384882D01*
X162207738Y-113450675D01*
X162187287Y-113460960D01*
X162071680Y-113506276D01*
X162049692Y-113512626D01*
X161929906Y-113535505D01*
X161909683Y-113537669D01*
X161838889Y-113539404D01*
X161836511Y-113539463D01*
X161833475Y-113539500D01*
X159411961Y-113539500D01*
X159344922Y-113519815D01*
X159299167Y-113467011D01*
X159287961Y-113415500D01*
X159287961Y-113090027D01*
X159287998Y-113089900D01*
X159288067Y-112943423D01*
X159288066Y-112943422D01*
X159288067Y-112943418D01*
X159252224Y-112756486D01*
X159181822Y-112579646D01*
X159178439Y-112574348D01*
X159079381Y-112419229D01*
X159079379Y-112419227D01*
X158948560Y-112280966D01*
X158794055Y-112169818D01*
X158794054Y-112169817D01*
X158794052Y-112169816D01*
X158621374Y-112089747D01*
X158621372Y-112089746D01*
X158436710Y-112043625D01*
X158436713Y-112043625D01*
X158246666Y-112033102D01*
X158246662Y-112033102D01*
X158246661Y-112033102D01*
X158203903Y-112038871D01*
X158058037Y-112058552D01*
X158058033Y-112058553D01*
X157877570Y-112119069D01*
X157877567Y-112119071D01*
X157711734Y-112212481D01*
X157566449Y-112335455D01*
X157566448Y-112335457D01*
X157446927Y-112483577D01*
X157446924Y-112483580D01*
X157446924Y-112483582D01*
X157395745Y-112579646D01*
X157357427Y-112651569D01*
X157301164Y-112833400D01*
X157301163Y-112833403D01*
X157296275Y-112877606D01*
X157292235Y-112892483D01*
X157293389Y-112892747D01*
X157290671Y-112904657D01*
X157289930Y-112931104D01*
X157289221Y-112941315D01*
X157286298Y-112967629D01*
X157286941Y-112975110D01*
X157286233Y-112987909D01*
X157286961Y-112987909D01*
X157286961Y-113035462D01*
X157286912Y-113038933D01*
X157285833Y-113077459D01*
X157286961Y-113090824D01*
X157286961Y-113415500D01*
X157267276Y-113482539D01*
X157214472Y-113528294D01*
X157162961Y-113539500D01*
X156111961Y-113539500D01*
X156044922Y-113519815D01*
X155999167Y-113467011D01*
X155987961Y-113415500D01*
X155987961Y-113091273D01*
X155988088Y-113089987D01*
X155988074Y-113089987D01*
X155988132Y-113038665D01*
X155988253Y-112931904D01*
X155950610Y-112721727D01*
X155944435Y-112705040D01*
X155876510Y-112521481D01*
X155876509Y-112521478D01*
X155768273Y-112337427D01*
X155768271Y-112337424D01*
X155629281Y-112175329D01*
X155629280Y-112175328D01*
X155560389Y-112119071D01*
X155463897Y-112040274D01*
X155277298Y-111936486D01*
X155277293Y-111936484D01*
X155277291Y-111936483D01*
X155075327Y-111867214D01*
X155075322Y-111867213D01*
X154891940Y-111838896D01*
X154864304Y-111834629D01*
X154864303Y-111834629D01*
X154864297Y-111834628D01*
X154650853Y-111839748D01*
X154650843Y-111839750D01*
X154441637Y-111882414D01*
X154441628Y-111882417D01*
X154243208Y-111961295D01*
X154061812Y-112073906D01*
X154061805Y-112073910D01*
X154061802Y-112073913D01*
X154061800Y-112073915D01*
X153903084Y-112216744D01*
X153772030Y-112385315D01*
X153672743Y-112574346D01*
X153672738Y-112574356D01*
X153611304Y-112768519D01*
X153608329Y-112777922D01*
X153601118Y-112833403D01*
X153580808Y-112989661D01*
X153580808Y-112989662D01*
X153585682Y-113088849D01*
X153585831Y-113094709D01*
X153586412Y-113415275D01*
X153566849Y-113482350D01*
X153514128Y-113528201D01*
X153462412Y-113539500D01*
X140936754Y-113539500D01*
X140869715Y-113519815D01*
X140823960Y-113467011D01*
X140814016Y-113397853D01*
X140828811Y-113358181D01*
X140827946Y-113357786D01*
X140860279Y-113286986D01*
X140888431Y-113225342D01*
X140907890Y-113090000D01*
X140888431Y-112954658D01*
X140860157Y-112892747D01*
X140831632Y-112830285D01*
X140831627Y-112830278D01*
X140742090Y-112726946D01*
X140742086Y-112726942D01*
X140627059Y-112653021D01*
X140495868Y-112614500D01*
X140495867Y-112614500D01*
X140359133Y-112614500D01*
X140359132Y-112614500D01*
X140227940Y-112653021D01*
X140112913Y-112726942D01*
X140112909Y-112726946D01*
X140023372Y-112830278D01*
X140023367Y-112830285D01*
X139966570Y-112954654D01*
X139966568Y-112954662D01*
X139947110Y-113090000D01*
X139966568Y-113225337D01*
X139966570Y-113225345D01*
X140027054Y-113357786D01*
X140025508Y-113358491D01*
X140042246Y-113415506D01*
X140022558Y-113482545D01*
X139969752Y-113528297D01*
X139918246Y-113539500D01*
X139039104Y-113539500D01*
X139036931Y-113539290D01*
X138992166Y-113539477D01*
X138980721Y-113538995D01*
X138851289Y-113527543D01*
X138828777Y-113523432D01*
X138709213Y-113489947D01*
X138687840Y-113481768D01*
X138576466Y-113426882D01*
X138556959Y-113414914D01*
X138457570Y-113340496D01*
X138440595Y-113325148D01*
X138356572Y-113233731D01*
X138342707Y-113215525D01*
X138308892Y-113161404D01*
X138276912Y-113110220D01*
X138266633Y-113089785D01*
X138221310Y-112974183D01*
X138214962Y-112952211D01*
X138191936Y-112831727D01*
X138189772Y-112811507D01*
X138187998Y-112739064D01*
X138187961Y-112736030D01*
X138187961Y-111190000D01*
X142347110Y-111190000D01*
X142366568Y-111325337D01*
X142366570Y-111325345D01*
X142423367Y-111449714D01*
X142423372Y-111449721D01*
X142512909Y-111553053D01*
X142512913Y-111553057D01*
X142573479Y-111591979D01*
X142627939Y-111626978D01*
X142693536Y-111646239D01*
X142759132Y-111665500D01*
X142759133Y-111665500D01*
X142895867Y-111665500D01*
X143006753Y-111632941D01*
X143076621Y-111632941D01*
X143135400Y-111670715D01*
X143164425Y-111734271D01*
X143164425Y-111769564D01*
X143147110Y-111889999D01*
X143166568Y-112025337D01*
X143166570Y-112025345D01*
X143223367Y-112149714D01*
X143223372Y-112149721D01*
X143312909Y-112253053D01*
X143312913Y-112253057D01*
X143361987Y-112284594D01*
X143427939Y-112326978D01*
X143493536Y-112346239D01*
X143559132Y-112365500D01*
X143559133Y-112365500D01*
X143695867Y-112365500D01*
X143827061Y-112326978D01*
X143942089Y-112253055D01*
X144031630Y-112149718D01*
X144088431Y-112025342D01*
X144107890Y-111890000D01*
X144090574Y-111769564D01*
X144100518Y-111700407D01*
X144146273Y-111647603D01*
X144213312Y-111627918D01*
X144248247Y-111632941D01*
X144359132Y-111665500D01*
X144359133Y-111665500D01*
X144495867Y-111665500D01*
X144627061Y-111626978D01*
X144742089Y-111553055D01*
X144831630Y-111449718D01*
X144888431Y-111325342D01*
X144907890Y-111190000D01*
X144888431Y-111054658D01*
X144854466Y-110980285D01*
X144831632Y-110930285D01*
X144831627Y-110930278D01*
X144742090Y-110826946D01*
X144742086Y-110826942D01*
X144627059Y-110753021D01*
X144495868Y-110714500D01*
X144495867Y-110714500D01*
X144359133Y-110714500D01*
X144359130Y-110714500D01*
X144248246Y-110747058D01*
X144178376Y-110747058D01*
X144119599Y-110709283D01*
X144090574Y-110645727D01*
X144090574Y-110610434D01*
X144107890Y-110490000D01*
X144088431Y-110354658D01*
X144051613Y-110274038D01*
X144031632Y-110230285D01*
X144031627Y-110230278D01*
X143942090Y-110126946D01*
X143942086Y-110126942D01*
X143829613Y-110054662D01*
X143827061Y-110053022D01*
X143827060Y-110053021D01*
X143827059Y-110053021D01*
X143695868Y-110014500D01*
X143695867Y-110014500D01*
X143559133Y-110014500D01*
X143559132Y-110014500D01*
X143427940Y-110053021D01*
X143312913Y-110126942D01*
X143312909Y-110126946D01*
X143223372Y-110230278D01*
X143223367Y-110230285D01*
X143166570Y-110354654D01*
X143166568Y-110354662D01*
X143147110Y-110490000D01*
X143164425Y-110610435D01*
X143154481Y-110679593D01*
X143108726Y-110732397D01*
X143041686Y-110752081D01*
X143006753Y-110747058D01*
X142895869Y-110714500D01*
X142895867Y-110714500D01*
X142759133Y-110714500D01*
X142759132Y-110714500D01*
X142627940Y-110753021D01*
X142512913Y-110826942D01*
X142512909Y-110826946D01*
X142423372Y-110930278D01*
X142423367Y-110930285D01*
X142366570Y-111054654D01*
X142366568Y-111054662D01*
X142347110Y-111190000D01*
X138187961Y-111190000D01*
X138187961Y-109149778D01*
X138187963Y-109149046D01*
X138188004Y-109142114D01*
X138188587Y-109043370D01*
X138157319Y-108848368D01*
X138094553Y-108661115D01*
X138056817Y-108590000D01*
X141147110Y-108590000D01*
X141166568Y-108725337D01*
X141166570Y-108725345D01*
X141223367Y-108849714D01*
X141223372Y-108849721D01*
X141312909Y-108953053D01*
X141312913Y-108953057D01*
X141345471Y-108973980D01*
X141427939Y-109026978D01*
X141472288Y-109040000D01*
X141559132Y-109065500D01*
X141559133Y-109065500D01*
X141695867Y-109065500D01*
X141827061Y-109026978D01*
X141942089Y-108953055D01*
X142031630Y-108849718D01*
X142068817Y-108768290D01*
X146081194Y-108768290D01*
X146100652Y-108903627D01*
X146100654Y-108903635D01*
X146157451Y-109028004D01*
X146157456Y-109028011D01*
X146227516Y-109108865D01*
X146246995Y-109131345D01*
X146309927Y-109171788D01*
X146355683Y-109224591D01*
X146365627Y-109293749D01*
X146336603Y-109357305D01*
X146336603Y-109357306D01*
X146273370Y-109430282D01*
X146273367Y-109430285D01*
X146216570Y-109554654D01*
X146216568Y-109554662D01*
X146197110Y-109690000D01*
X146216568Y-109825337D01*
X146216570Y-109825345D01*
X146273367Y-109949714D01*
X146273372Y-109949721D01*
X146362909Y-110053053D01*
X146362913Y-110053057D01*
X146423479Y-110091979D01*
X146477939Y-110126978D01*
X146489202Y-110130285D01*
X146609132Y-110165500D01*
X146636141Y-110165500D01*
X146703180Y-110185185D01*
X146748935Y-110237989D01*
X146758878Y-110271851D01*
X146759193Y-110274038D01*
X146766568Y-110325336D01*
X146766570Y-110325345D01*
X146823367Y-110449714D01*
X146823372Y-110449721D01*
X146912909Y-110553053D01*
X146912913Y-110553057D01*
X146932892Y-110565896D01*
X147027939Y-110626978D01*
X147058914Y-110636073D01*
X147159132Y-110665500D01*
X147159133Y-110665500D01*
X147295867Y-110665500D01*
X147427061Y-110626978D01*
X147542089Y-110553055D01*
X147631630Y-110449718D01*
X147658902Y-110390000D01*
X149347110Y-110390000D01*
X149366568Y-110525337D01*
X149366570Y-110525345D01*
X149423367Y-110649714D01*
X149423372Y-110649721D01*
X149512909Y-110753053D01*
X149512913Y-110753057D01*
X149548633Y-110776012D01*
X149627939Y-110826978D01*
X149693536Y-110846239D01*
X149759132Y-110865500D01*
X149759133Y-110865500D01*
X149895867Y-110865500D01*
X150027061Y-110826978D01*
X150142089Y-110753055D01*
X150231630Y-110649718D01*
X150288431Y-110525342D01*
X150307890Y-110390000D01*
X150288431Y-110254658D01*
X150276177Y-110227827D01*
X150231632Y-110130285D01*
X150231627Y-110130278D01*
X150142090Y-110026946D01*
X150142086Y-110026942D01*
X150042069Y-109962667D01*
X150027061Y-109953022D01*
X150027060Y-109953021D01*
X150027059Y-109953021D01*
X149895868Y-109914500D01*
X149895867Y-109914500D01*
X149759133Y-109914500D01*
X149759132Y-109914500D01*
X149627940Y-109953021D01*
X149512913Y-110026942D01*
X149512909Y-110026946D01*
X149423372Y-110130278D01*
X149423367Y-110130285D01*
X149366570Y-110254654D01*
X149366568Y-110254662D01*
X149347110Y-110390000D01*
X147658902Y-110390000D01*
X147688431Y-110325342D01*
X147707890Y-110190000D01*
X147688431Y-110054658D01*
X147646420Y-109962667D01*
X147631632Y-109930285D01*
X147631627Y-109930278D01*
X147542090Y-109826946D01*
X147542086Y-109826942D01*
X147427059Y-109753021D01*
X147295868Y-109714500D01*
X147295867Y-109714500D01*
X147268859Y-109714500D01*
X147201820Y-109694815D01*
X147156065Y-109642011D01*
X147146121Y-109608146D01*
X147138431Y-109554658D01*
X147120548Y-109515500D01*
X147081632Y-109430285D01*
X147081627Y-109430278D01*
X146992090Y-109326946D01*
X146992086Y-109326942D01*
X146929156Y-109286501D01*
X146883400Y-109233698D01*
X146873456Y-109164539D01*
X146902478Y-109100986D01*
X146965714Y-109028008D01*
X146966185Y-109026978D01*
X146991466Y-108971619D01*
X147022515Y-108903632D01*
X147041974Y-108768290D01*
X147022515Y-108632948D01*
X146998966Y-108581383D01*
X146965716Y-108508575D01*
X146965711Y-108508568D01*
X146876174Y-108405236D01*
X146876170Y-108405232D01*
X146778663Y-108342570D01*
X146761145Y-108331312D01*
X146761144Y-108331311D01*
X146761143Y-108331311D01*
X146629952Y-108292790D01*
X146629951Y-108292790D01*
X146493217Y-108292790D01*
X146493216Y-108292790D01*
X146362024Y-108331311D01*
X146246997Y-108405232D01*
X146246993Y-108405236D01*
X146157456Y-108508568D01*
X146157451Y-108508575D01*
X146100654Y-108632944D01*
X146100652Y-108632952D01*
X146081194Y-108768290D01*
X142068817Y-108768290D01*
X142088431Y-108725342D01*
X142107890Y-108590000D01*
X142107890Y-108589999D01*
X142107890Y-108589500D01*
X142108030Y-108589020D01*
X142109152Y-108581222D01*
X142110273Y-108581383D01*
X142127575Y-108522461D01*
X142180379Y-108476706D01*
X142231890Y-108465500D01*
X142295867Y-108465500D01*
X142427061Y-108426978D01*
X142542089Y-108353055D01*
X142631630Y-108249718D01*
X142688431Y-108125342D01*
X142707890Y-107990000D01*
X142707890Y-107989999D01*
X142707890Y-107989500D01*
X142708030Y-107989020D01*
X142709152Y-107981222D01*
X142710273Y-107981383D01*
X142727575Y-107922461D01*
X142780379Y-107876706D01*
X142831890Y-107865500D01*
X142895867Y-107865500D01*
X143027061Y-107826978D01*
X143093332Y-107784388D01*
X143160370Y-107764704D01*
X143227409Y-107784389D01*
X143273164Y-107837193D01*
X143283108Y-107906351D01*
X143273166Y-107940211D01*
X143266570Y-107954653D01*
X143266568Y-107954662D01*
X143247110Y-108090000D01*
X143266568Y-108225337D01*
X143266570Y-108225345D01*
X143323367Y-108349714D01*
X143323372Y-108349721D01*
X143412909Y-108453053D01*
X143412913Y-108453057D01*
X143455282Y-108480285D01*
X143527939Y-108526978D01*
X143593536Y-108546239D01*
X143659132Y-108565500D01*
X143659133Y-108565500D01*
X143795867Y-108565500D01*
X143927061Y-108526978D01*
X144042089Y-108453055D01*
X144131630Y-108349718D01*
X144134895Y-108342570D01*
X144148691Y-108312360D01*
X144188431Y-108225342D01*
X144207890Y-108090000D01*
X144188431Y-107954658D01*
X144181737Y-107940000D01*
X144447110Y-107940000D01*
X144466568Y-108075337D01*
X144466570Y-108075345D01*
X144523367Y-108199714D01*
X144523372Y-108199721D01*
X144612909Y-108303053D01*
X144612913Y-108303057D01*
X144656880Y-108331312D01*
X144727939Y-108376978D01*
X144793536Y-108396239D01*
X144859132Y-108415500D01*
X144859133Y-108415500D01*
X144995867Y-108415500D01*
X145127061Y-108376978D01*
X145242089Y-108303055D01*
X145331630Y-108199718D01*
X145358902Y-108140000D01*
X148647110Y-108140000D01*
X148666568Y-108275337D01*
X148666570Y-108275345D01*
X148723367Y-108399714D01*
X148723372Y-108399722D01*
X148817887Y-108508798D01*
X148846912Y-108572353D01*
X148836968Y-108641512D01*
X148817887Y-108671202D01*
X148723372Y-108780277D01*
X148723367Y-108780285D01*
X148666570Y-108904654D01*
X148666568Y-108904662D01*
X148647110Y-109040000D01*
X148666568Y-109175337D01*
X148666570Y-109175345D01*
X148723367Y-109299714D01*
X148723372Y-109299721D01*
X148812909Y-109403053D01*
X148812913Y-109403057D01*
X148855282Y-109430285D01*
X148927939Y-109476978D01*
X148993536Y-109496239D01*
X149059132Y-109515500D01*
X149059133Y-109515500D01*
X149195867Y-109515500D01*
X149327061Y-109476978D01*
X149442089Y-109403055D01*
X149531630Y-109299718D01*
X149588431Y-109175342D01*
X149607890Y-109040000D01*
X149588431Y-108904658D01*
X149556211Y-108834106D01*
X149531632Y-108780285D01*
X149531630Y-108780283D01*
X149531630Y-108780282D01*
X149442089Y-108676945D01*
X149442085Y-108676942D01*
X149437112Y-108671203D01*
X149408087Y-108607647D01*
X149418031Y-108538489D01*
X149437112Y-108508797D01*
X149442085Y-108503057D01*
X149442089Y-108503055D01*
X149531630Y-108399718D01*
X149588431Y-108275342D01*
X149607890Y-108140000D01*
X149588431Y-108004658D01*
X149576177Y-107977827D01*
X149531632Y-107880285D01*
X149531627Y-107880278D01*
X149442090Y-107776946D01*
X149442086Y-107776942D01*
X149327059Y-107703021D01*
X149195868Y-107664500D01*
X149195867Y-107664500D01*
X149059133Y-107664500D01*
X149059132Y-107664500D01*
X148927940Y-107703021D01*
X148812913Y-107776942D01*
X148812909Y-107776946D01*
X148723372Y-107880278D01*
X148723367Y-107880285D01*
X148666570Y-108004654D01*
X148666568Y-108004662D01*
X148647110Y-108140000D01*
X145358902Y-108140000D01*
X145388431Y-108075342D01*
X145407890Y-107940000D01*
X145388431Y-107804658D01*
X145375040Y-107775337D01*
X145331632Y-107680285D01*
X145331627Y-107680278D01*
X145242090Y-107576946D01*
X145242086Y-107576942D01*
X145129613Y-107504662D01*
X145127061Y-107503022D01*
X145127060Y-107503021D01*
X145127059Y-107503021D01*
X144995868Y-107464500D01*
X144995867Y-107464500D01*
X144859133Y-107464500D01*
X144859132Y-107464500D01*
X144727940Y-107503021D01*
X144612913Y-107576942D01*
X144612909Y-107576946D01*
X144523372Y-107680278D01*
X144523367Y-107680285D01*
X144466570Y-107804654D01*
X144466568Y-107804662D01*
X144447110Y-107940000D01*
X144181737Y-107940000D01*
X144154466Y-107880285D01*
X144131632Y-107830285D01*
X144131627Y-107830278D01*
X144042090Y-107726946D01*
X144042086Y-107726942D01*
X143927059Y-107653021D01*
X143795868Y-107614500D01*
X143795867Y-107614500D01*
X143659133Y-107614500D01*
X143659132Y-107614500D01*
X143527943Y-107653020D01*
X143527940Y-107653021D01*
X143527939Y-107653022D01*
X143461667Y-107695612D01*
X143394627Y-107715295D01*
X143327588Y-107695609D01*
X143281834Y-107642805D01*
X143271891Y-107573646D01*
X143281836Y-107539782D01*
X143288431Y-107525342D01*
X143307890Y-107390000D01*
X143303161Y-107357107D01*
X146586256Y-107357107D01*
X146605714Y-107492444D01*
X146605716Y-107492452D01*
X146662513Y-107616821D01*
X146662518Y-107616828D01*
X146752055Y-107720160D01*
X146752059Y-107720164D01*
X146801505Y-107751940D01*
X146867085Y-107794085D01*
X146903107Y-107804662D01*
X146998278Y-107832607D01*
X146998279Y-107832607D01*
X147135013Y-107832607D01*
X147266207Y-107794085D01*
X147381235Y-107720162D01*
X147470776Y-107616825D01*
X147527577Y-107492449D01*
X147547036Y-107357107D01*
X147527577Y-107221765D01*
X147496183Y-107153022D01*
X147470778Y-107097392D01*
X147470773Y-107097385D01*
X147381236Y-106994053D01*
X147381232Y-106994049D01*
X147266205Y-106920128D01*
X147135014Y-106881607D01*
X147135013Y-106881607D01*
X146998279Y-106881607D01*
X146998278Y-106881607D01*
X146867086Y-106920128D01*
X146752059Y-106994049D01*
X146752055Y-106994053D01*
X146662518Y-107097385D01*
X146662513Y-107097392D01*
X146605716Y-107221761D01*
X146605714Y-107221769D01*
X146586256Y-107357107D01*
X143303161Y-107357107D01*
X143288431Y-107254658D01*
X143273407Y-107221761D01*
X143231632Y-107130285D01*
X143231627Y-107130278D01*
X143142090Y-107026946D01*
X143142086Y-107026942D01*
X143027059Y-106953021D01*
X142895868Y-106914500D01*
X142895867Y-106914500D01*
X142759133Y-106914500D01*
X142759132Y-106914500D01*
X142627940Y-106953021D01*
X142512913Y-107026942D01*
X142512909Y-107026946D01*
X142423372Y-107130278D01*
X142423367Y-107130285D01*
X142366570Y-107254654D01*
X142366568Y-107254662D01*
X142347110Y-107390000D01*
X142347110Y-107390500D01*
X142346969Y-107390979D01*
X142345848Y-107398778D01*
X142344726Y-107398616D01*
X142327425Y-107457539D01*
X142274621Y-107503294D01*
X142223110Y-107514500D01*
X142159132Y-107514500D01*
X142027940Y-107553021D01*
X141912913Y-107626942D01*
X141912909Y-107626946D01*
X141823372Y-107730278D01*
X141823367Y-107730285D01*
X141766570Y-107854654D01*
X141766568Y-107854662D01*
X141747110Y-107990000D01*
X141747110Y-107990500D01*
X141746969Y-107990979D01*
X141745848Y-107998778D01*
X141744726Y-107998616D01*
X141727425Y-108057539D01*
X141674621Y-108103294D01*
X141623110Y-108114500D01*
X141559132Y-108114500D01*
X141427940Y-108153021D01*
X141312913Y-108226942D01*
X141312909Y-108226946D01*
X141223372Y-108330278D01*
X141223367Y-108330285D01*
X141166570Y-108454654D01*
X141166568Y-108454662D01*
X141147110Y-108590000D01*
X138056817Y-108590000D01*
X138023375Y-108526978D01*
X138001983Y-108486663D01*
X137882107Y-108329719D01*
X137882104Y-108329715D01*
X137738152Y-108194508D01*
X137651892Y-108136795D01*
X137574016Y-108084691D01*
X137574015Y-108084690D01*
X137574010Y-108084687D01*
X137531641Y-108065500D01*
X137394108Y-108003218D01*
X137394102Y-108003216D01*
X137344581Y-107990000D01*
X139847110Y-107990000D01*
X139866568Y-108125337D01*
X139866570Y-108125345D01*
X139923367Y-108249714D01*
X139923372Y-108249721D01*
X140012909Y-108353053D01*
X140012913Y-108353057D01*
X140055050Y-108380136D01*
X140127939Y-108426978D01*
X140160685Y-108436593D01*
X140259132Y-108465500D01*
X140259133Y-108465500D01*
X140395867Y-108465500D01*
X140527061Y-108426978D01*
X140642089Y-108353055D01*
X140731630Y-108249718D01*
X140788431Y-108125342D01*
X140807890Y-107990000D01*
X140788431Y-107854658D01*
X140767099Y-107807947D01*
X140731632Y-107730285D01*
X140731627Y-107730278D01*
X140642090Y-107626946D01*
X140642086Y-107626942D01*
X140527059Y-107553021D01*
X140395868Y-107514500D01*
X140395867Y-107514500D01*
X140259133Y-107514500D01*
X140259132Y-107514500D01*
X140127940Y-107553021D01*
X140012913Y-107626942D01*
X140012909Y-107626946D01*
X139923372Y-107730278D01*
X139923367Y-107730285D01*
X139866570Y-107854654D01*
X139866568Y-107854662D01*
X139847110Y-107990000D01*
X137344581Y-107990000D01*
X137304360Y-107979266D01*
X137244663Y-107942960D01*
X137214071Y-107880144D01*
X137222297Y-107810760D01*
X137223519Y-107807993D01*
X137238431Y-107775342D01*
X137257890Y-107640000D01*
X137238431Y-107504658D01*
X137186515Y-107390979D01*
X137181632Y-107380286D01*
X137181631Y-107380285D01*
X137181630Y-107380282D01*
X137173762Y-107371201D01*
X137144738Y-107307651D01*
X137154679Y-107238492D01*
X137173759Y-107208801D01*
X137181630Y-107199718D01*
X137238431Y-107075342D01*
X137243512Y-107040000D01*
X137897110Y-107040000D01*
X137916568Y-107175337D01*
X137916570Y-107175345D01*
X137973367Y-107299714D01*
X137973372Y-107299721D01*
X138062909Y-107403053D01*
X138062913Y-107403057D01*
X138123479Y-107441979D01*
X138177939Y-107476978D01*
X138230639Y-107492452D01*
X138309132Y-107515500D01*
X138309133Y-107515500D01*
X138445867Y-107515500D01*
X138577061Y-107476978D01*
X138692089Y-107403055D01*
X138733789Y-107354930D01*
X138792564Y-107317157D01*
X138862434Y-107317157D01*
X138921209Y-107354928D01*
X138962911Y-107403055D01*
X138962914Y-107403057D01*
X138962913Y-107403057D01*
X139023479Y-107441979D01*
X139077939Y-107476978D01*
X139130639Y-107492452D01*
X139209132Y-107515500D01*
X139209133Y-107515500D01*
X139345867Y-107515500D01*
X139477061Y-107476978D01*
X139592089Y-107403055D01*
X139681630Y-107299718D01*
X139738431Y-107175342D01*
X139757890Y-107040000D01*
X139738431Y-106904658D01*
X139720320Y-106865000D01*
X139681632Y-106780285D01*
X139681629Y-106780281D01*
X139681626Y-106780278D01*
X139677098Y-106775052D01*
X139648075Y-106711496D01*
X139658019Y-106642338D01*
X139677095Y-106612654D01*
X139731630Y-106549718D01*
X139788431Y-106425342D01*
X139807890Y-106290000D01*
X139793512Y-106190000D01*
X149897110Y-106190000D01*
X149916568Y-106325337D01*
X149916570Y-106325345D01*
X149962239Y-106425345D01*
X149973370Y-106449718D01*
X149973373Y-106449721D01*
X149978163Y-106457175D01*
X149976008Y-106458559D01*
X149999433Y-106509869D01*
X149989481Y-106579026D01*
X149977622Y-106597477D01*
X149978163Y-106597825D01*
X149973367Y-106605287D01*
X149916570Y-106729654D01*
X149916568Y-106729662D01*
X149897110Y-106865000D01*
X149916568Y-107000337D01*
X149916570Y-107000345D01*
X149973367Y-107124714D01*
X149973372Y-107124721D01*
X150062909Y-107228053D01*
X150062913Y-107228057D01*
X150104313Y-107254662D01*
X150177939Y-107301978D01*
X150229634Y-107317157D01*
X150309132Y-107340500D01*
X150309133Y-107340500D01*
X150445867Y-107340500D01*
X150577061Y-107301978D01*
X150692089Y-107228055D01*
X150781630Y-107124718D01*
X150786002Y-107115146D01*
X150809721Y-107063207D01*
X150838431Y-107000342D01*
X150857890Y-106865000D01*
X150838431Y-106729658D01*
X150806573Y-106659899D01*
X150781632Y-106605285D01*
X150776835Y-106597821D01*
X150778992Y-106596434D01*
X150755570Y-106545150D01*
X150765511Y-106475991D01*
X150777377Y-106457527D01*
X150776835Y-106457179D01*
X150781627Y-106449720D01*
X150781630Y-106449718D01*
X150838431Y-106325342D01*
X150857890Y-106190000D01*
X150838431Y-106054658D01*
X150813523Y-106000118D01*
X150781632Y-105930285D01*
X150781627Y-105930278D01*
X150692090Y-105826946D01*
X150692086Y-105826942D01*
X150577059Y-105753021D01*
X150445868Y-105714500D01*
X150445867Y-105714500D01*
X150309133Y-105714500D01*
X150308448Y-105714500D01*
X150244316Y-105695668D01*
X150235168Y-105715702D01*
X150185290Y-105747757D01*
X150186011Y-105749335D01*
X150177940Y-105753020D01*
X150062913Y-105826942D01*
X150062909Y-105826946D01*
X149973372Y-105930278D01*
X149973367Y-105930285D01*
X149916570Y-106054654D01*
X149916568Y-106054662D01*
X149897110Y-106190000D01*
X139793512Y-106190000D01*
X139788431Y-106154658D01*
X139752210Y-106075345D01*
X139731632Y-106030285D01*
X139731627Y-106030278D01*
X139642090Y-105926946D01*
X139642086Y-105926942D01*
X139527059Y-105853021D01*
X139395868Y-105814500D01*
X139395867Y-105814500D01*
X139259133Y-105814500D01*
X139259132Y-105814500D01*
X139127940Y-105853021D01*
X139012913Y-105926942D01*
X139012909Y-105926946D01*
X138923372Y-106030278D01*
X138923367Y-106030285D01*
X138866570Y-106154654D01*
X138866568Y-106154662D01*
X138847110Y-106290000D01*
X138866568Y-106425337D01*
X138866570Y-106425345D01*
X138923367Y-106549714D01*
X138923370Y-106549718D01*
X138927897Y-106554942D01*
X138956923Y-106618497D01*
X138946982Y-106687656D01*
X138927898Y-106717351D01*
X138921211Y-106725068D01*
X138862432Y-106762842D01*
X138792563Y-106762841D01*
X138733786Y-106725066D01*
X138692090Y-106676946D01*
X138692086Y-106676942D01*
X138600459Y-106618059D01*
X138577061Y-106603022D01*
X138577060Y-106603021D01*
X138577059Y-106603021D01*
X138445868Y-106564500D01*
X138445867Y-106564500D01*
X138309133Y-106564500D01*
X138309132Y-106564500D01*
X138177940Y-106603021D01*
X138062913Y-106676942D01*
X138062909Y-106676946D01*
X137973372Y-106780278D01*
X137973367Y-106780285D01*
X137916570Y-106904654D01*
X137916568Y-106904662D01*
X137897110Y-107040000D01*
X137243512Y-107040000D01*
X137257890Y-106940000D01*
X137238431Y-106804658D01*
X137203904Y-106729056D01*
X137193961Y-106659899D01*
X137222986Y-106596343D01*
X137253306Y-106573345D01*
X137252318Y-106571765D01*
X137258505Y-106567896D01*
X137258505Y-106567895D01*
X137258509Y-106567894D01*
X137350129Y-106494353D01*
X137417030Y-106408009D01*
X137473651Y-106367074D01*
X137543415Y-106363247D01*
X137569428Y-106374277D01*
X137569877Y-106373296D01*
X137577936Y-106376976D01*
X137577939Y-106376978D01*
X137643536Y-106396239D01*
X137709132Y-106415500D01*
X137709133Y-106415500D01*
X137845867Y-106415500D01*
X137977061Y-106376978D01*
X138092089Y-106303055D01*
X138181630Y-106199718D01*
X138238431Y-106075342D01*
X138257890Y-105940000D01*
X138238431Y-105804658D01*
X138226177Y-105777827D01*
X138181632Y-105680285D01*
X138181627Y-105680278D01*
X138092090Y-105576946D01*
X138092086Y-105576942D01*
X137997341Y-105516055D01*
X137977061Y-105503022D01*
X137977060Y-105503021D01*
X137977059Y-105503021D01*
X137845868Y-105464500D01*
X137845867Y-105464500D01*
X137709133Y-105464500D01*
X137709132Y-105464500D01*
X137646896Y-105482774D01*
X137577026Y-105482774D01*
X137518248Y-105444999D01*
X137489223Y-105381444D01*
X137487961Y-105363797D01*
X137487961Y-105094278D01*
X137488006Y-105090936D01*
X137489390Y-105039595D01*
X137489390Y-105039592D01*
X137479404Y-104992021D01*
X137465282Y-104924746D01*
X137465277Y-104924736D01*
X137464923Y-104923681D01*
X137464892Y-104922888D01*
X137463784Y-104917609D01*
X137464679Y-104917421D01*
X137462207Y-104853864D01*
X137464519Y-104849938D01*
X137414510Y-104817799D01*
X137411560Y-104814263D01*
X137341600Y-104727187D01*
X137341594Y-104727181D01*
X137248827Y-104655334D01*
X137248826Y-104655333D01*
X137248823Y-104655331D01*
X137141867Y-104607048D01*
X137141863Y-104607046D01*
X137124706Y-104603743D01*
X137098040Y-104595030D01*
X137096165Y-104594562D01*
X137079109Y-104593730D01*
X137061848Y-104591668D01*
X137045079Y-104588459D01*
X137045078Y-104588459D01*
X137036980Y-104588518D01*
X137027369Y-104589500D01*
X136995364Y-104589500D01*
X136989326Y-104589353D01*
X136987846Y-104589280D01*
X136957390Y-104587795D01*
X136955002Y-104588151D01*
X136936761Y-104589500D01*
X136651961Y-104589500D01*
X136584922Y-104569815D01*
X136559087Y-104540000D01*
X137597110Y-104540000D01*
X137616568Y-104675337D01*
X137616570Y-104675346D01*
X137621020Y-104685089D01*
X137630962Y-104754248D01*
X137624276Y-104768886D01*
X137629539Y-104769435D01*
X137676165Y-104802944D01*
X137762911Y-104903055D01*
X137762913Y-104903056D01*
X137762913Y-104903057D01*
X137793772Y-104922888D01*
X137877939Y-104976978D01*
X137923991Y-104990500D01*
X138009132Y-105015500D01*
X138009133Y-105015500D01*
X138145867Y-105015500D01*
X138277061Y-104976978D01*
X138392089Y-104903055D01*
X138481630Y-104799718D01*
X138538431Y-104675342D01*
X138557890Y-104540000D01*
X138538431Y-104404658D01*
X138526177Y-104377827D01*
X138481632Y-104280285D01*
X138481627Y-104280278D01*
X138392090Y-104176946D01*
X138392086Y-104176942D01*
X138277059Y-104103021D01*
X138145868Y-104064500D01*
X138145867Y-104064500D01*
X138009133Y-104064500D01*
X138009132Y-104064500D01*
X137877940Y-104103021D01*
X137762913Y-104176942D01*
X137762909Y-104176946D01*
X137673372Y-104280278D01*
X137673367Y-104280285D01*
X137616570Y-104404654D01*
X137616568Y-104404662D01*
X137597110Y-104540000D01*
X136559087Y-104540000D01*
X136539167Y-104517011D01*
X136527961Y-104465500D01*
X136527961Y-101965000D01*
X137847110Y-101965000D01*
X137866568Y-102100337D01*
X137866570Y-102100345D01*
X137923367Y-102224714D01*
X137923372Y-102224721D01*
X138012909Y-102328053D01*
X138012913Y-102328057D01*
X138046624Y-102349721D01*
X138127939Y-102401978D01*
X138193536Y-102421239D01*
X138259132Y-102440500D01*
X138259133Y-102440500D01*
X138395867Y-102440500D01*
X138527061Y-102401978D01*
X138642089Y-102328055D01*
X138731630Y-102224718D01*
X138788431Y-102100342D01*
X138807890Y-101965000D01*
X138788431Y-101829658D01*
X138741524Y-101726946D01*
X138731632Y-101705285D01*
X138731627Y-101705277D01*
X138688702Y-101655739D01*
X138659677Y-101592183D01*
X138669621Y-101523025D01*
X138715373Y-101470223D01*
X138742089Y-101453055D01*
X138831630Y-101349718D01*
X138888431Y-101225342D01*
X138907890Y-101090000D01*
X138888431Y-100954658D01*
X138876177Y-100927827D01*
X138831632Y-100830285D01*
X138831627Y-100830278D01*
X138742090Y-100726946D01*
X138742086Y-100726942D01*
X138627059Y-100653021D01*
X138495868Y-100614500D01*
X138495867Y-100614500D01*
X138359133Y-100614500D01*
X138359132Y-100614500D01*
X138227940Y-100653021D01*
X138112913Y-100726942D01*
X138112909Y-100726946D01*
X138023372Y-100830278D01*
X138023367Y-100830285D01*
X137966570Y-100954654D01*
X137966568Y-100954662D01*
X137947110Y-101090000D01*
X137966568Y-101225337D01*
X137966570Y-101225345D01*
X138023367Y-101349714D01*
X138023369Y-101349716D01*
X138023370Y-101349718D01*
X138023373Y-101349721D01*
X138066298Y-101399260D01*
X138095322Y-101462816D01*
X138085378Y-101531974D01*
X138039624Y-101584777D01*
X138012913Y-101601943D01*
X138012909Y-101601946D01*
X137923372Y-101705278D01*
X137923367Y-101705285D01*
X137866570Y-101829654D01*
X137866568Y-101829662D01*
X137847110Y-101965000D01*
X136527961Y-101965000D01*
X136527961Y-99041101D01*
X136528811Y-99031505D01*
X136528526Y-99016928D01*
X136546894Y-98949516D01*
X136598792Y-98902736D01*
X136652502Y-98890500D01*
X136979001Y-98890500D01*
X136982475Y-98890548D01*
X136993010Y-98890844D01*
X137037268Y-98892085D01*
X137037269Y-98892085D01*
X137037269Y-98892084D01*
X137037272Y-98892085D01*
X137152273Y-98868059D01*
X137258509Y-98817894D01*
X137350129Y-98744353D01*
X137422087Y-98651484D01*
X137470421Y-98544403D01*
X137473723Y-98527234D01*
X137482414Y-98500629D01*
X137482898Y-98498693D01*
X137482900Y-98498690D01*
X137483733Y-98481585D01*
X137485790Y-98464356D01*
X137489002Y-98447543D01*
X137488940Y-98439401D01*
X137487961Y-98429823D01*
X137487961Y-98397903D01*
X137488108Y-98391864D01*
X137489665Y-98359928D01*
X137489310Y-98357540D01*
X137487961Y-98339299D01*
X137487961Y-97344278D01*
X137488006Y-97340936D01*
X137489390Y-97289595D01*
X137489390Y-97289592D01*
X137465283Y-97174751D01*
X137465282Y-97174746D01*
X137455887Y-97154887D01*
X137415103Y-97068674D01*
X137415097Y-97068665D01*
X137341600Y-96977187D01*
X137341594Y-96977181D01*
X137243058Y-96900866D01*
X137244697Y-96898749D01*
X137205838Y-96856501D01*
X137193849Y-96787668D01*
X137204259Y-96750167D01*
X137238431Y-96675342D01*
X137257890Y-96540000D01*
X137238431Y-96404658D01*
X137181630Y-96280282D01*
X137173762Y-96271201D01*
X137144738Y-96207651D01*
X137154679Y-96138492D01*
X137173759Y-96108801D01*
X137181630Y-96099718D01*
X137238431Y-95975342D01*
X137257890Y-95840000D01*
X137238431Y-95704658D01*
X137238427Y-95704650D01*
X137236898Y-95699440D01*
X137236895Y-95629570D01*
X137274667Y-95570790D01*
X137338222Y-95541763D01*
X137355874Y-95540500D01*
X139175340Y-95540500D01*
X139192458Y-95541687D01*
X139206574Y-95543654D01*
X139273064Y-95552922D01*
X139297320Y-95558842D01*
X139371273Y-95585023D01*
X139393855Y-95595686D01*
X139461064Y-95636157D01*
X139481043Y-95651122D01*
X139537762Y-95703305D01*
X139544015Y-95709482D01*
X139560958Y-95727451D01*
X139563458Y-95730183D01*
X139574471Y-95742585D01*
X139574472Y-95742585D01*
X139577905Y-95746451D01*
X139584206Y-95752108D01*
X139667078Y-95840000D01*
X139841837Y-96025346D01*
X139845959Y-96029942D01*
X139900999Y-96094470D01*
X139912457Y-96110269D01*
X139967697Y-96200639D01*
X139976533Y-96218040D01*
X140016906Y-96315947D01*
X140022903Y-96334519D01*
X140047416Y-96437555D01*
X140050425Y-96456838D01*
X140058855Y-96567530D01*
X140059213Y-96577286D01*
X140059086Y-96623256D01*
X140059226Y-96624687D01*
X140059226Y-97376184D01*
X140039541Y-97443223D01*
X139986737Y-97488978D01*
X139917579Y-97498922D01*
X139900292Y-97495161D01*
X139795869Y-97464500D01*
X139795867Y-97464500D01*
X139659133Y-97464500D01*
X139659132Y-97464500D01*
X139527940Y-97503021D01*
X139412913Y-97576942D01*
X139412909Y-97576946D01*
X139323372Y-97680278D01*
X139323367Y-97680285D01*
X139266570Y-97804654D01*
X139266568Y-97804662D01*
X139247110Y-97940000D01*
X139266568Y-98075337D01*
X139266570Y-98075345D01*
X139323367Y-98199714D01*
X139323372Y-98199721D01*
X139412909Y-98303053D01*
X139412913Y-98303057D01*
X139473479Y-98341979D01*
X139527939Y-98376978D01*
X139554708Y-98384838D01*
X139659132Y-98415500D01*
X139659133Y-98415500D01*
X139795867Y-98415500D01*
X139900292Y-98384838D01*
X139970160Y-98384838D01*
X140028939Y-98422612D01*
X140057964Y-98486167D01*
X140059226Y-98503815D01*
X140059226Y-101523247D01*
X140039541Y-101590286D01*
X139986737Y-101636041D01*
X139917579Y-101645985D01*
X139900292Y-101642224D01*
X139805870Y-101614500D01*
X139805867Y-101614500D01*
X139669133Y-101614500D01*
X139669132Y-101614500D01*
X139537940Y-101653021D01*
X139422913Y-101726942D01*
X139422909Y-101726946D01*
X139333372Y-101830278D01*
X139333367Y-101830285D01*
X139276570Y-101954654D01*
X139276568Y-101954662D01*
X139257110Y-102090000D01*
X139276568Y-102225337D01*
X139276570Y-102225345D01*
X139333367Y-102349714D01*
X139333372Y-102349721D01*
X139422909Y-102453053D01*
X139422913Y-102453057D01*
X139483479Y-102491979D01*
X139537939Y-102526978D01*
X139603536Y-102546239D01*
X139669132Y-102565500D01*
X139669133Y-102565500D01*
X139805867Y-102565500D01*
X139900291Y-102537775D01*
X139970161Y-102537775D01*
X140028939Y-102575549D01*
X140057964Y-102639105D01*
X140059226Y-102656752D01*
X140059226Y-105263683D01*
X140059197Y-105263982D01*
X140059226Y-105314805D01*
X140059226Y-105355501D01*
X140059232Y-105355534D01*
X140059249Y-105355574D01*
X140074368Y-105392019D01*
X140074381Y-105392086D01*
X140074394Y-105392081D01*
X140089750Y-105429153D01*
X140089752Y-105429155D01*
X140089812Y-105429246D01*
X140089814Y-105429249D01*
X140118031Y-105457434D01*
X140146152Y-105485555D01*
X140146155Y-105485556D01*
X140146245Y-105485616D01*
X140146248Y-105485619D01*
X140182674Y-105500682D01*
X140182708Y-105500696D01*
X140182743Y-105500711D01*
X140206378Y-105510501D01*
X140219844Y-105516079D01*
X140219849Y-105516079D01*
X140219956Y-105516100D01*
X140219957Y-105516101D01*
X140219957Y-105516100D01*
X140219958Y-105516101D01*
X140258909Y-105516079D01*
X140312186Y-105516079D01*
X140312479Y-105516047D01*
X150136559Y-105510500D01*
X150136559Y-105510501D01*
X150136593Y-105510499D01*
X150141456Y-105510499D01*
X150205586Y-105529330D01*
X150214735Y-105509297D01*
X150242291Y-105489597D01*
X150240593Y-105487098D01*
X150240633Y-105487070D01*
X150240552Y-105486949D01*
X150240899Y-105486718D01*
X150242070Y-105486093D01*
X150250568Y-105480320D01*
X150251157Y-105479924D01*
X150251168Y-105479912D01*
X150251170Y-105479912D01*
X150279976Y-105451073D01*
X150279984Y-105451081D01*
X150280013Y-105451035D01*
X150307490Y-105423552D01*
X150307490Y-105423550D01*
X150307505Y-105423536D01*
X150307532Y-105423496D01*
X150307538Y-105423480D01*
X150307541Y-105423478D01*
X150323709Y-105384381D01*
X150337779Y-105350400D01*
X150338028Y-105349818D01*
X150338028Y-105349817D01*
X150338023Y-105349311D01*
X150337999Y-105308579D01*
X150337999Y-105308522D01*
X150337931Y-104769435D01*
X150337743Y-103290000D01*
X151247110Y-103290000D01*
X151266568Y-103425337D01*
X151266570Y-103425345D01*
X151323367Y-103549714D01*
X151323372Y-103549721D01*
X151412909Y-103653053D01*
X151412913Y-103653057D01*
X151473479Y-103691979D01*
X151527939Y-103726978D01*
X151593536Y-103746239D01*
X151659132Y-103765500D01*
X151659133Y-103765500D01*
X151795867Y-103765500D01*
X151927061Y-103726978D01*
X152042089Y-103653055D01*
X152131630Y-103549718D01*
X152188431Y-103425342D01*
X152207890Y-103290000D01*
X152188431Y-103154658D01*
X152176177Y-103127827D01*
X152131632Y-103030285D01*
X152131627Y-103030278D01*
X152042090Y-102926946D01*
X152042086Y-102926942D01*
X151927059Y-102853021D01*
X151795868Y-102814500D01*
X151795867Y-102814500D01*
X151659133Y-102814500D01*
X151659132Y-102814500D01*
X151527940Y-102853021D01*
X151412913Y-102926942D01*
X151412909Y-102926946D01*
X151323372Y-103030278D01*
X151323367Y-103030285D01*
X151266570Y-103154654D01*
X151266568Y-103154662D01*
X151247110Y-103290000D01*
X150337743Y-103290000D01*
X150337357Y-100251356D01*
X150357033Y-100184318D01*
X150409831Y-100138556D01*
X150478988Y-100128604D01*
X150496292Y-100132367D01*
X150609132Y-100165500D01*
X150609133Y-100165500D01*
X150745867Y-100165500D01*
X150877061Y-100126978D01*
X150992089Y-100053055D01*
X151081630Y-99949718D01*
X151138431Y-99825342D01*
X151157890Y-99690000D01*
X151138431Y-99554658D01*
X151126177Y-99527827D01*
X151081632Y-99430285D01*
X151081627Y-99430278D01*
X150992090Y-99326946D01*
X150992086Y-99326942D01*
X150877059Y-99253021D01*
X150745868Y-99214500D01*
X150745867Y-99214500D01*
X150609133Y-99214500D01*
X150609130Y-99214500D01*
X150496149Y-99247674D01*
X150426280Y-99247674D01*
X150367502Y-99209899D01*
X150338477Y-99146344D01*
X150337215Y-99128713D01*
X150337201Y-99016928D01*
X150337137Y-98521294D01*
X150356813Y-98454256D01*
X150409611Y-98408494D01*
X150478768Y-98398542D01*
X150496071Y-98402305D01*
X150609130Y-98435501D01*
X150609132Y-98435502D01*
X150609133Y-98435502D01*
X150745867Y-98435502D01*
X150877061Y-98396980D01*
X150992089Y-98323057D01*
X151081630Y-98219720D01*
X151090767Y-98199714D01*
X151119934Y-98135846D01*
X151138431Y-98095344D01*
X151157890Y-97960002D01*
X151138431Y-97824660D01*
X151122602Y-97790000D01*
X151081632Y-97700287D01*
X151081627Y-97700280D01*
X150992090Y-97596948D01*
X150992086Y-97596944D01*
X150888355Y-97530282D01*
X150877061Y-97523024D01*
X150877060Y-97523023D01*
X150877059Y-97523023D01*
X150745868Y-97484502D01*
X150745867Y-97484502D01*
X150609133Y-97484502D01*
X150609129Y-97484502D01*
X150495929Y-97517740D01*
X150426059Y-97517740D01*
X150367281Y-97479965D01*
X150338257Y-97416409D01*
X150336995Y-97398779D01*
X150336988Y-97339814D01*
X150336899Y-96639897D01*
X150337031Y-96638548D01*
X150337000Y-96627304D01*
X150337001Y-96627303D01*
X150336906Y-96592580D01*
X150337306Y-96582292D01*
X150340711Y-96540000D01*
X150346407Y-96469258D01*
X150349754Y-96448962D01*
X150376162Y-96344016D01*
X150382822Y-96324548D01*
X150386588Y-96315947D01*
X150426227Y-96225411D01*
X150436009Y-96207323D01*
X150495219Y-96116720D01*
X150507857Y-96100501D01*
X150583847Y-96018111D01*
X150587268Y-96014549D01*
X150589524Y-96012293D01*
X150593275Y-96008698D01*
X150617594Y-95986374D01*
X150617598Y-95986363D01*
X150617815Y-95986070D01*
X150630203Y-95971614D01*
X151975498Y-94626318D01*
X152036821Y-94592834D01*
X152063179Y-94590000D01*
X152434588Y-94590000D01*
X152501627Y-94609685D01*
G37*
%TD.AperFunction*%
%TD*%
M02*
