%TF.GenerationSoftware,KiCad,Pcbnew,8.0.8*%
%TF.CreationDate,2025-02-21T00:18:55+11:00*%
%TF.ProjectId,FrameworkDongleHiderRetrofit,4672616d-6577-46f7-926b-446f6e676c65,rev?*%
%TF.SameCoordinates,Original*%
%TF.FileFunction,Copper,L3,Inr*%
%TF.FilePolarity,Positive*%
%FSLAX46Y46*%
G04 Gerber Fmt 4.6, Leading zero omitted, Abs format (unit mm)*
G04 Created by KiCad (PCBNEW 8.0.8) date 2025-02-21 00:18:55*
%MOMM*%
%LPD*%
G01*
G04 APERTURE LIST*
%TA.AperFunction,ComponentPad*%
%ADD10O,2.500000X1.300000*%
%TD*%
%TA.AperFunction,ViaPad*%
%ADD11C,0.450000*%
%TD*%
%TA.AperFunction,Conductor*%
%ADD12C,0.200000*%
%TD*%
G04 APERTURE END LIST*
D10*
%TO.N,GND*%
%TO.C,J3*%
X152447500Y-109700000D03*
X157947500Y-109700000D03*
X157947500Y-93800000D03*
%TD*%
D11*
%TO.N,GND*%
X154777500Y-111390000D03*
X156227500Y-112290000D03*
X153127500Y-113090000D03*
X155677500Y-111690000D03*
X156427500Y-113090000D03*
X153327500Y-112290000D03*
X153877500Y-111690000D03*
X156227500Y-91190000D03*
X155677500Y-91790000D03*
X156427500Y-90390000D03*
X153127500Y-90390000D03*
X153327500Y-91190000D03*
X153877500Y-91790000D03*
X154777500Y-92090000D03*
X142827500Y-107390000D03*
X139727500Y-97940000D03*
%TO.N,VBUS*%
X138427500Y-102990000D03*
X150527500Y-104990000D03*
X140777500Y-110890000D03*
X150527500Y-104390000D03*
X150527500Y-104390000D03*
X147027500Y-108190000D03*
X142777500Y-106640000D03*
X142777500Y-105890000D03*
X147427500Y-106540000D03*
X150527500Y-104990000D03*
X138677500Y-99590000D03*
X138327500Y-99940000D03*
%TO.N,GND*%
X149827500Y-110390000D03*
X142827500Y-111190000D03*
X138077500Y-104540000D03*
X152477500Y-111240000D03*
X144427500Y-111190000D03*
X139737500Y-102090000D03*
X150677500Y-99690000D03*
X149127500Y-108140000D03*
X143627500Y-110490000D03*
X149127500Y-109040000D03*
X136077500Y-95840000D03*
X136777500Y-95840000D03*
X136777500Y-106940000D03*
X136077500Y-107640000D03*
X151477500Y-111240000D03*
X140427500Y-113090000D03*
X143627500Y-111890000D03*
X136077500Y-96540000D03*
X136077500Y-106940000D03*
X136777500Y-96540000D03*
X140327500Y-107990000D03*
X136777500Y-107640000D03*
X150677500Y-97960002D03*
%TO.N,RX+*%
X152127500Y-97790000D03*
X137777500Y-105940000D03*
%TO.N,Net-(P1-D+)*%
X138327500Y-101965000D03*
X141627500Y-108590000D03*
%TO.N,RX-*%
X151927500Y-96090000D03*
X139327500Y-106290000D03*
%TO.N,TX+*%
X138377500Y-107040000D03*
X150377500Y-106865000D03*
%TO.N,Net-(P1-D-)*%
X138427500Y-101090000D03*
X142227500Y-107990000D03*
%TO.N,TX-*%
X139277500Y-107040000D03*
X150377500Y-106190000D03*
%TO.N,Net-(U1-DP1+)*%
X143727500Y-108090000D03*
X147066646Y-107357107D03*
%TO.N,Net-(U1-DP3+)*%
X146561584Y-108768290D03*
%TO.N,Net-(U1-DM1-)*%
X147227500Y-110190000D03*
X144927500Y-107940000D03*
%TO.N,Net-(U1-DM3-)*%
X146677500Y-109690000D03*
%TO.N,Net-(J3-D+)*%
X152232500Y-101567377D03*
X152227500Y-107590000D03*
%TO.N,Net-(J3-D-)*%
X151727500Y-103290000D03*
X151327500Y-108740000D03*
%TD*%
D12*
%TO.N,RX+*%
X137777500Y-106740000D02*
X137777500Y-105940000D01*
X148877500Y-107540000D02*
X148483567Y-107933933D01*
X150627500Y-107440000D02*
X149118921Y-107440000D01*
X151202500Y-103213939D02*
X151202500Y-103388224D01*
X143227500Y-109640000D02*
X142816409Y-110051091D01*
X146077500Y-111240000D02*
X144448211Y-109610711D01*
X146144658Y-111307157D02*
X146077500Y-111240000D01*
X144277500Y-109540000D02*
X143468921Y-109540000D01*
X152127500Y-97790000D02*
X152127500Y-100507158D01*
X148677500Y-110043553D02*
X148677500Y-110190000D01*
X140377500Y-109990000D02*
X138237120Y-107849620D01*
X151927500Y-100990000D02*
X151839632Y-101077868D01*
X141877500Y-110440000D02*
X141463896Y-110440000D01*
X151527500Y-104172842D02*
X151527500Y-106627868D01*
X151627500Y-101590000D02*
X151627500Y-102448579D01*
X147277500Y-111590000D02*
X146827500Y-111590000D01*
X151527500Y-106627868D02*
X151525509Y-106695030D01*
X148377500Y-108190000D02*
X148377500Y-109319290D01*
X151527500Y-102690000D02*
X151343171Y-102874329D01*
X151456947Y-106860553D02*
X151054277Y-107263223D01*
X152127500Y-100507158D02*
G75*
G02*
X151927513Y-100990013I-682800J-42D01*
G01*
X151839632Y-101077868D02*
G75*
G03*
X151627511Y-101590000I512168J-512132D01*
G01*
X151327500Y-103690000D02*
G75*
G02*
X151527482Y-104172842I-482800J-482800D01*
G01*
X138237120Y-107849620D02*
G75*
G02*
X137777489Y-106740000I1109580J1109620D01*
G01*
X144448211Y-109610711D02*
G75*
G03*
X144277500Y-109539994I-170711J-170689D01*
G01*
X148377500Y-109319290D02*
G75*
G03*
X148427497Y-109440003I170700J-10D01*
G01*
X146827500Y-111590000D02*
G75*
G02*
X146144654Y-111307161I0J965700D01*
G01*
X148677500Y-110190000D02*
G75*
G02*
X147277500Y-111590000I-1400000J0D01*
G01*
X151627500Y-102448579D02*
G75*
G02*
X151527506Y-102690006I-341400J-21D01*
G01*
X148427500Y-109440000D02*
G75*
G02*
X148677519Y-110043553I-603600J-603600D01*
G01*
X142816409Y-110051091D02*
G75*
G02*
X141877500Y-110440005I-938909J938891D01*
G01*
X143468921Y-109540000D02*
G75*
G03*
X143227494Y-109639994I-21J-341400D01*
G01*
X151525509Y-106695030D02*
G75*
G02*
X151456937Y-106860543I-234109J30D01*
G01*
X149118921Y-107440000D02*
G75*
G03*
X148877494Y-107539994I-21J-341400D01*
G01*
X148483567Y-107933933D02*
G75*
G03*
X148377491Y-108190000I256033J-256067D01*
G01*
X151343171Y-102874329D02*
G75*
G03*
X151202533Y-103213939I339629J-339571D01*
G01*
X151054277Y-107263223D02*
G75*
G02*
X150627500Y-107439986I-426777J426823D01*
G01*
X151202500Y-103388224D02*
G75*
G03*
X151327507Y-103689993I426800J24D01*
G01*
X141463896Y-110440000D02*
G75*
G02*
X140377501Y-109989999I4J1536400D01*
G01*
%TO.N,Net-(P1-D+)*%
X139475333Y-103490000D02*
X139475333Y-104040000D01*
X141380012Y-107592512D02*
X139724467Y-105936967D01*
X139475333Y-105335503D02*
X139475333Y-104040000D01*
X138627500Y-102390000D02*
X139297023Y-103059523D01*
X141627500Y-108590000D02*
X141627500Y-108190000D01*
X138415888Y-102178389D02*
X138627500Y-102390000D01*
X139724467Y-105936967D02*
G75*
G02*
X139475321Y-105335503I601433J601467D01*
G01*
X141627500Y-108190000D02*
G75*
G03*
X141380017Y-107592507I-845000J0D01*
G01*
X139297023Y-103059523D02*
G75*
G02*
X139475319Y-103490000I-430523J-430477D01*
G01*
X138327500Y-101965000D02*
G75*
G03*
X138415884Y-102178393I301800J0D01*
G01*
%TO.N,RX-*%
X151224844Y-102283588D02*
X151227500Y-102290000D01*
X151903434Y-97080032D02*
X151858599Y-97157692D01*
X151527500Y-97790000D02*
X151527500Y-97948579D01*
X151662743Y-100680752D02*
X151500540Y-100842955D01*
X151500540Y-100842955D02*
X151436432Y-100909696D01*
X151858599Y-97157692D02*
X151827500Y-97190000D01*
X151127500Y-104640000D02*
X151127500Y-104940000D01*
X150986078Y-103948578D02*
X151040012Y-104006825D01*
X151262817Y-101234525D02*
X151226723Y-101416020D01*
X151227500Y-102292681D02*
X151226208Y-102339160D01*
X151333627Y-101063560D02*
X151262817Y-101234525D01*
X151827500Y-97190000D02*
X151739632Y-97277868D01*
X151721612Y-98337126D02*
X151721612Y-100538607D01*
X151040012Y-104006825D02*
X151111285Y-104148613D01*
X151224844Y-101508544D02*
X151224844Y-102283588D01*
X150865675Y-103825097D02*
X150927500Y-103890000D01*
X151687725Y-98254019D02*
X151727500Y-98322912D01*
X150776084Y-102910122D02*
X150729706Y-103083234D01*
X151721612Y-100538607D02*
X151715857Y-100560090D01*
X151927500Y-96090000D02*
X151927500Y-96948579D01*
X150776067Y-103669885D02*
X150865675Y-103825097D01*
X151226723Y-101416020D02*
X151224844Y-101508544D01*
X150727500Y-103172842D02*
X150727500Y-103407158D01*
X151529013Y-97718815D02*
X151527500Y-97790000D01*
X151627500Y-98190000D02*
X151625748Y-98188248D01*
X151125846Y-104226649D02*
X151125846Y-104638346D01*
X150727500Y-103407158D02*
X150729688Y-103496769D01*
X151701529Y-100613570D02*
X151662743Y-100680752D01*
X145035736Y-105981764D02*
X142054277Y-108963223D01*
X151528361Y-97993415D02*
X151551566Y-98080032D01*
X151596401Y-98157692D02*
X151627500Y-98190000D01*
X151551566Y-98080032D02*
X151596401Y-98157692D01*
X151125846Y-104638346D02*
X151127500Y-104640000D01*
X151926639Y-96993415D02*
X151903434Y-97080032D01*
X151727500Y-98322912D02*
X151721612Y-98337126D01*
X151227500Y-102290000D02*
X151227500Y-102292681D01*
X151436432Y-100909696D02*
X151333627Y-101063560D01*
X150927500Y-103890000D02*
X150986078Y-103948578D01*
X151527500Y-97948579D02*
X151528361Y-97993415D01*
X151226208Y-102339160D02*
X151190647Y-102425048D01*
X149786079Y-105790000D02*
X145498695Y-105790000D01*
X141077500Y-108590000D02*
X141077500Y-108340000D01*
X151625748Y-98188248D02*
X151687725Y-98254019D01*
X150456692Y-105610808D02*
X150218686Y-105610808D01*
X151190647Y-102425048D02*
X151158684Y-102458816D01*
X150865689Y-102754914D02*
X150776084Y-102910122D01*
X151611268Y-97447646D02*
X151556787Y-97579180D01*
X151927500Y-96948579D02*
X151926639Y-96993415D01*
X151556787Y-97579180D02*
X151529013Y-97718815D01*
X151739632Y-97277868D02*
X151690361Y-97329268D01*
X151690361Y-97329268D02*
X151611268Y-97447646D01*
X151111285Y-104148613D02*
X151125846Y-104226649D01*
X151158684Y-102458816D02*
X150927500Y-102690000D01*
X150729688Y-103496769D02*
X150776067Y-103669885D01*
X150729706Y-103083234D02*
X150727500Y-103172842D01*
X150927500Y-102690000D02*
X150865689Y-102754914D01*
X140865367Y-107827867D02*
X139327500Y-106290000D01*
X151715857Y-100560090D02*
X151701529Y-100613570D01*
X151127500Y-104940000D02*
G75*
G02*
X150456692Y-105610800I-670800J0D01*
G01*
X145498695Y-105790000D02*
G75*
G03*
X145035743Y-105981771I5J-654700D01*
G01*
X142054277Y-108963223D02*
G75*
G02*
X141627500Y-109139986I-426777J426823D01*
G01*
X150218686Y-105610808D02*
G75*
G03*
X150027504Y-105690004I14J-270392D01*
G01*
X141077500Y-108340000D02*
G75*
G03*
X140865374Y-107827860I-724300J0D01*
G01*
X150027500Y-105690000D02*
G75*
G02*
X149786079Y-105789991I-241400J241400D01*
G01*
X141627500Y-109140000D02*
G75*
G02*
X141077500Y-108590000I0J550000D01*
G01*
%TO.N,TX+*%
X149149987Y-106865000D02*
X150377500Y-106865000D01*
X148227500Y-110140000D02*
X148227500Y-110122842D01*
X141655962Y-109990000D02*
X141677500Y-109990000D01*
X138589632Y-107552132D02*
X140583110Y-109545610D01*
X146932867Y-111149330D02*
X147218170Y-111149330D01*
X148083566Y-107683934D02*
X148727500Y-107040000D01*
X142616409Y-109601091D02*
X143027500Y-109190000D01*
X144718921Y-109231421D02*
X146427500Y-110940000D01*
X143268921Y-109090000D02*
X144377500Y-109090000D01*
X147977500Y-109519290D02*
X147977500Y-107940000D01*
X148727500Y-107040000D02*
G75*
G02*
X149149987Y-106864995I422500J-422500D01*
G01*
X144377500Y-109090000D02*
G75*
G02*
X144718912Y-109231430I0J-482800D01*
G01*
X138377500Y-107040000D02*
G75*
G03*
X138589625Y-107552139I724300J0D01*
G01*
X148227500Y-110122842D02*
G75*
G03*
X148027513Y-109639987I-682800J42D01*
G01*
X148027500Y-109640000D02*
G75*
G02*
X147977504Y-109519290I120700J120700D01*
G01*
X143027500Y-109190000D02*
G75*
G02*
X143268921Y-109090009I241400J-241400D01*
G01*
X146427500Y-110940000D02*
G75*
G03*
X146932867Y-111149344I505400J505400D01*
G01*
X147218170Y-111149330D02*
G75*
G03*
X148227530Y-110140000I30J1009330D01*
G01*
X147977500Y-107940000D02*
G75*
G02*
X148083573Y-107683941I362100J0D01*
G01*
X140583110Y-109545610D02*
G75*
G03*
X141655962Y-109990039I1072890J1072810D01*
G01*
X141677500Y-109990000D02*
G75*
G03*
X142616405Y-109601087I0J1327800D01*
G01*
%TO.N,Net-(P1-D-)*%
X139877500Y-105371801D02*
X139877500Y-105190000D01*
X139627500Y-102790000D02*
X139081054Y-102243554D01*
X142145697Y-107792511D02*
X139985343Y-105632157D01*
X138427500Y-101090000D02*
X138524448Y-101090000D01*
X139877500Y-105190000D02*
X139875333Y-105187833D01*
X138727500Y-101390000D02*
X138427500Y-101090000D01*
X139875333Y-105187833D02*
X139875333Y-103388321D01*
X139985343Y-105632157D02*
G75*
G02*
X139877500Y-105371801I260357J260357D01*
G01*
X138512855Y-101125355D02*
G75*
G03*
X138427500Y-101089997I-85355J-85345D01*
G01*
X138877500Y-101752132D02*
G75*
G03*
X138727509Y-101389991I-512100J32D01*
G01*
X139875333Y-103388321D02*
G75*
G03*
X139627506Y-102789994I-846133J21D01*
G01*
X142227500Y-107990000D02*
G75*
G03*
X142145699Y-107792509I-279300J0D01*
G01*
X139081054Y-102243554D02*
G75*
G02*
X138877485Y-101752132I491446J491454D01*
G01*
%TO.N,TX-*%
X146177500Y-110040000D02*
X146342144Y-110204645D01*
X144954277Y-108816777D02*
X146177500Y-110040000D01*
X146598211Y-110310711D02*
X146921434Y-110633934D01*
X139277500Y-107340000D02*
X139277500Y-107040000D01*
X149227500Y-106190000D02*
X150377500Y-106190000D01*
X140849129Y-109240491D02*
X139510041Y-107901403D01*
X142294337Y-109288849D02*
X142785343Y-108797843D01*
X147777500Y-110190000D02*
X147777500Y-110131421D01*
X147177500Y-110740000D02*
X147227500Y-110740000D01*
X147739632Y-107377868D02*
X148715368Y-106402132D01*
X141581242Y-109543742D02*
X141678971Y-109543742D01*
X147552500Y-109588224D02*
X147552500Y-107829644D01*
X143166409Y-108640000D02*
X144527500Y-108640000D01*
X144527500Y-108640000D02*
G75*
G02*
X144954287Y-108816767I0J-603600D01*
G01*
X147777500Y-110131421D02*
G75*
G03*
X147677506Y-109889994I-341400J21D01*
G01*
X147227500Y-110740000D02*
G75*
G03*
X147777500Y-110190000I0J550000D01*
G01*
X139510041Y-107901403D02*
G75*
G02*
X139277487Y-107340000I561359J561403D01*
G01*
X140849129Y-109240491D02*
G75*
G03*
X141581242Y-109543719I732071J732091D01*
G01*
X147552500Y-107829644D02*
G75*
G02*
X147739611Y-107377847I638900J44D01*
G01*
X148715368Y-106402132D02*
G75*
G02*
X149227500Y-106190011I512132J-512168D01*
G01*
X142785343Y-108797843D02*
G75*
G02*
X143166409Y-108640004I381057J-381057D01*
G01*
X147677500Y-109890000D02*
G75*
G02*
X147552490Y-109588224I301800J301800D01*
G01*
X141678971Y-109543742D02*
G75*
G03*
X142294348Y-109288860I29J870242D01*
G01*
X146427500Y-110240000D02*
G75*
G02*
X146598207Y-110310715I0J-241400D01*
G01*
X146921434Y-110633934D02*
G75*
G03*
X147177500Y-110740009I256066J256034D01*
G01*
X146342144Y-110204645D02*
G75*
G03*
X146427500Y-110240004I85356J85345D01*
G01*
%TO.N,Net-(J3-D+)*%
X152327500Y-101662377D02*
X152327500Y-107348579D01*
X152232500Y-101567377D02*
X152327500Y-101662377D01*
X152327500Y-107348579D02*
G75*
G02*
X152227506Y-107590006I-341400J-21D01*
G01*
%TO.N,Net-(J3-D-)*%
X151777500Y-107140000D02*
X151677500Y-107240000D01*
X151577500Y-107481421D02*
X151577500Y-107719290D01*
X151577500Y-107719290D02*
X151577500Y-108136447D01*
X151727500Y-103290000D02*
X151727500Y-103448579D01*
X151730317Y-103515932D02*
X151759023Y-103585239D01*
X151727500Y-103448579D02*
X151730317Y-103515932D01*
X151727500Y-103290000D02*
X151731306Y-103329845D01*
X151927500Y-103890000D02*
X151927500Y-106777868D01*
X151759023Y-103585239D02*
X151831132Y-103657348D01*
X151577500Y-108136447D02*
G75*
G02*
X151327486Y-108739986I-853600J47D01*
G01*
X151677500Y-107240000D02*
G75*
G03*
X151577509Y-107481421I241400J-241400D01*
G01*
X151927500Y-106777868D02*
G75*
G02*
X151777509Y-107140009I-512100J-32D01*
G01*
X151831132Y-103657348D02*
G75*
G02*
X151927505Y-103890000I-232632J-232652D01*
G01*
%TD*%
M02*
