%TF.GenerationSoftware,KiCad,Pcbnew,8.0.8*%
%TF.CreationDate,2025-02-21T00:18:55+11:00*%
%TF.ProjectId,FrameworkDongleHiderRetrofit,4672616d-6577-46f7-926b-446f6e676c65,rev?*%
%TF.SameCoordinates,Original*%
%TF.FileFunction,Soldermask,Top*%
%TF.FilePolarity,Negative*%
%FSLAX46Y46*%
G04 Gerber Fmt 4.6, Leading zero omitted, Abs format (unit mm)*
G04 Created by KiCad (PCBNEW 8.0.8) date 2025-02-21 00:18:55*
%MOMM*%
%LPD*%
G01*
G04 APERTURE LIST*
G04 Aperture macros list*
%AMRoundRect*
0 Rectangle with rounded corners*
0 $1 Rounding radius*
0 $2 $3 $4 $5 $6 $7 $8 $9 X,Y pos of 4 corners*
0 Add a 4 corners polygon primitive as box body*
4,1,4,$2,$3,$4,$5,$6,$7,$8,$9,$2,$3,0*
0 Add four circle primitives for the rounded corners*
1,1,$1+$1,$2,$3*
1,1,$1+$1,$4,$5*
1,1,$1+$1,$6,$7*
1,1,$1+$1,$8,$9*
0 Add four rect primitives between the rounded corners*
20,1,$1+$1,$2,$3,$4,$5,0*
20,1,$1+$1,$4,$5,$6,$7,0*
20,1,$1+$1,$6,$7,$8,$9,0*
20,1,$1+$1,$8,$9,$2,$3,0*%
%AMRotRect*
0 Rectangle, with rotation*
0 The origin of the aperture is its center*
0 $1 length*
0 $2 width*
0 $3 Rotation angle, in degrees counterclockwise*
0 Add horizontal line*
21,1,$1,$2,0,0,$3*%
G04 Aperture macros list end*
%ADD10C,2.050000*%
%ADD11C,0.100000*%
%ADD12RoundRect,0.140000X0.140000X0.170000X-0.140000X0.170000X-0.140000X-0.170000X0.140000X-0.170000X0*%
%ADD13RoundRect,0.140000X0.170000X-0.140000X0.170000X0.140000X-0.170000X0.140000X-0.170000X-0.140000X0*%
%ADD14R,1.150000X1.000000*%
%ADD15R,1.500000X1.500000*%
%ADD16RoundRect,0.150000X0.512500X0.150000X-0.512500X0.150000X-0.512500X-0.150000X0.512500X-0.150000X0*%
%ADD17RoundRect,0.062500X0.291682X-0.203293X-0.203293X0.291682X-0.291682X0.203293X0.203293X-0.291682X0*%
%ADD18RoundRect,0.062500X0.291682X0.203293X0.203293X0.291682X-0.291682X-0.203293X-0.203293X-0.291682X0*%
%ADD19RotRect,2.700000X2.700000X135.000000*%
%ADD20R,1.000000X0.380000*%
%ADD21R,1.150000X0.700000*%
%ADD22C,1.500000*%
%ADD23R,1.400000X1.000000*%
%ADD24R,1.400000X0.450000*%
%ADD25R,1.400000X0.455000*%
%ADD26O,2.500000X1.300000*%
%ADD27RoundRect,0.135000X-0.185000X0.135000X-0.185000X-0.135000X0.185000X-0.135000X0.185000X0.135000X0*%
G04 APERTURE END LIST*
D10*
X155802500Y-90440000D02*
G75*
G02*
X153752500Y-90440000I-1025000J0D01*
G01*
X153752500Y-90440000D02*
G75*
G02*
X155802500Y-90440000I1025000J0D01*
G01*
X155802500Y-113040000D02*
G75*
G02*
X153752500Y-113040000I-1025000J0D01*
G01*
X153752500Y-113040000D02*
G75*
G02*
X155802500Y-113040000I1025000J0D01*
G01*
D11*
X135577500Y-95240000D02*
X137177500Y-95240000D01*
X137177500Y-97265000D01*
X135577500Y-97265000D01*
X135577500Y-95240000D01*
G36*
X135577500Y-95240000D02*
G01*
X137177500Y-95240000D01*
X137177500Y-97265000D01*
X135577500Y-97265000D01*
X135577500Y-95240000D01*
G37*
X135577500Y-106240000D02*
X137177500Y-106240000D01*
X137177500Y-108365000D01*
X135577500Y-108365000D01*
X135577500Y-106240000D01*
G36*
X135577500Y-106240000D02*
G01*
X137177500Y-106240000D01*
X137177500Y-108365000D01*
X135577500Y-108365000D01*
X135577500Y-106240000D01*
G37*
D12*
%TO.C,C6*%
X139457500Y-110860000D03*
X138497500Y-110860000D03*
%TD*%
D13*
%TO.C,C2*%
X139717500Y-99710000D03*
X139717500Y-98750000D03*
%TD*%
D12*
%TO.C,C5*%
X139457500Y-109890000D03*
X138497500Y-109890000D03*
%TD*%
D14*
%TO.C,Y1*%
X149927500Y-111390000D03*
X148177500Y-111390000D03*
X148177500Y-112790000D03*
X149927500Y-112790000D03*
%TD*%
D15*
%TO.C,USB1*%
X148602500Y-106240000D03*
X146102500Y-106240000D03*
X144102500Y-106240000D03*
X141602500Y-106240000D03*
%TD*%
D12*
%TO.C,C7*%
X139457500Y-111830000D03*
X138497500Y-111830000D03*
%TD*%
D16*
%TO.C,U2*%
X150227500Y-109490000D03*
X150227500Y-108540000D03*
X150227500Y-107590000D03*
X147952500Y-107590000D03*
X147952500Y-108540000D03*
X147952500Y-109490000D03*
%TD*%
D17*
%TO.C,U1*%
X144127500Y-112933162D03*
X144481053Y-112579608D03*
X144834606Y-112226055D03*
X145188160Y-111872501D03*
X145541713Y-111518948D03*
X145895267Y-111165395D03*
D18*
X145895267Y-110157767D03*
X145541713Y-109804214D03*
X145188160Y-109450661D03*
X144834606Y-109097107D03*
X144481053Y-108743554D03*
X144127500Y-108390000D03*
D17*
X143119872Y-108390000D03*
X142766319Y-108743554D03*
X142412766Y-109097107D03*
X142059212Y-109450661D03*
X141705659Y-109804214D03*
X141352105Y-110157767D03*
D18*
X141352105Y-111165395D03*
X141705659Y-111518948D03*
X142059212Y-111872501D03*
X142412766Y-112226055D03*
X142766319Y-112579608D03*
X143119872Y-112933162D03*
D19*
X143623686Y-110661581D03*
%TD*%
D20*
%TO.C,P1*%
X137327500Y-104490000D03*
X137327500Y-103990000D03*
X137327500Y-103490000D03*
X137327500Y-102990000D03*
X137327500Y-102490000D03*
X137327500Y-101990000D03*
X137327500Y-101490000D03*
X137327500Y-100990000D03*
X137327500Y-100490000D03*
X137327500Y-99990000D03*
X137327500Y-99490000D03*
X137327500Y-98990000D03*
D21*
X138167500Y-105160000D03*
%TD*%
D22*
%TO.C,REF\u002A\u002A*%
X161577500Y-90940000D03*
%TD*%
D23*
%TO.C,J3*%
X151347500Y-104750000D03*
X151347500Y-102450000D03*
X151347500Y-101050000D03*
X151347500Y-98750000D03*
D24*
X151347500Y-96610000D03*
X151347500Y-97310000D03*
X151347500Y-106190000D03*
D25*
X151347500Y-106877500D03*
D26*
X152447500Y-109700000D03*
X157947500Y-109700000D03*
X157947500Y-93800000D03*
%TD*%
D22*
%TO.C,REF\u002A\u002A*%
X161627500Y-112540000D03*
%TD*%
D27*
%TO.C,R1*%
X139717500Y-100600000D03*
X139717500Y-101620000D03*
%TD*%
D13*
%TO.C,C1*%
X139727500Y-103470000D03*
X139727500Y-102510000D03*
%TD*%
D12*
%TO.C,C8*%
X139457500Y-112800000D03*
X138497500Y-112800000D03*
%TD*%
M02*
