M48
; DRILL file {KiCad 8.0.8} date 2025-02-21T00:18:55+1100
; FORMAT={-:-/ absolute / inch / decimal}
; #@! TF.CreationDate,2025-02-21T00:18:55+11:00
; #@! TF.GenerationSoftware,Kicad,Pcbnew,8.0.8
; #@! TF.FileFunction,Plated,1,4,PTH
FMAT,2
INCH
; #@! TA.AperFunction,Plated,PTH,ViaDrill
T1C0.0118
; #@! TA.AperFunction,Plated,PTH,ComponentDrill
T2C0.0240
%
G90
G05
T1
X5.3574Y-3.7732
X5.3574Y-3.8008
X5.3574Y-4.2102
X5.3574Y-4.2378
X5.3849Y-3.7732
X5.3849Y-3.8008
X5.3849Y-4.2102
X5.3849Y-4.2378
X5.4243Y-4.1709
X5.4361Y-4.1157
X5.446Y-3.9346
X5.446Y-4.0144
X5.4479Y-4.2142
X5.4499Y-3.9799
X5.4499Y-4.0547
X5.4597Y-3.9209
X5.4834Y-4.2142
X5.4853Y-4.1846
X5.5011Y-3.8559
X5.5015Y-4.0193
X5.5247Y-4.2516
X5.5286Y-4.4524
X5.5424Y-4.3657
X5.5759Y-4.2752
X5.5995Y-4.2516
X5.6212Y-4.1689
X5.6212Y-4.1984
X5.6231Y-4.228
X5.6231Y-4.3776
X5.6546Y-4.35
X5.6546Y-4.4051
X5.6586Y-4.2555
X5.6861Y-4.3776
X5.7058Y-4.2496
X5.7701Y-4.2822
X5.7747Y-4.3185
X5.7885Y-4.2594
X5.79Y-4.2267
X5.7964Y-4.3382
X5.8042Y-4.1945
X5.8712Y-4.2575
X5.8712Y-4.2929
X5.8987Y-4.3461
X5.9204Y-4.1807
X5.9204Y-4.2073
X5.9263Y-4.1098
X5.9263Y-4.1098
X5.9263Y-4.1335
X5.9263Y-4.1335
X5.9322Y-3.8567
X5.9322Y-3.9248
X5.9578Y-4.2811
X5.9637Y-4.3795
X5.9735Y-4.0665
X5.9814Y-3.7831
X5.9893Y-3.85
X5.9932Y-4.2358
X5.9934Y-3.9987
X6.0031Y-4.3795
X6.0286Y-3.5587
X6.0286Y-4.4524
X6.0365Y-3.5902
X6.0365Y-4.4209
X6.0582Y-3.6138
X6.0582Y-4.3972
X6.0936Y-3.6256
X6.0936Y-4.3854
X6.129Y-3.6138
X6.129Y-4.3972
X6.1507Y-3.5902
X6.1507Y-4.4209
X6.1586Y-3.5587
X6.1586Y-4.4524
T2
G00X5.9824Y-4.3189
M15
G01X6.0214Y-4.3189
M16
G05
G00X6.1989Y-3.6929
M15
G01X6.2379Y-3.6929
M16
G05
G00X6.1989Y-4.3189
M15
G01X6.2379Y-4.3189
M16
G05
M30
