0
SECTION
2
HEADER
9
$INSUNITS
70
4
9
$ACADVER
1
AC1014
9
$HANDSEED
5
FFFF
0
ENDSEC
0
SECTION
2
TABLES
0
TABLE
2
VPORT
5
8
100
AcDbSymbolTable
0
ENDTAB
0
TABLE
2
LTYPE
5
5
100
AcDbSymbolTable
0
LTYPE
5
14
100
AcDbSymbolTableRecord
100
AcDbLinetypeTableRecord
2
BYBLOCK
70
0
0
LTYPE
5
15
100
AcDbSymbolTableRecord
100
AcDbLinetypeTableRecord
2
BYLAYER
70
0
0
LTYPE
5
16
100
AcDbSymbolTableRecord
100
AcDbLinetypeTableRecord
2
DASHED
70
0
3
Dashed __ __ __ __ __ __ __ __ __ __ __ __ __ _
72
65
73
2
40
0.75
49
0.5
74
0
49
-0.25
74
0
0
ENDTAB
0
TABLE
2
LAYER
5
2
100
AcDbSymbolTable
70
3
0
LAYER
5
50
100
AcDbSymbolTableRecord
100
AcDbLayerTableRecord
2
1
70
0
62
7
6
DASHED
0
LAYER
5
51
100
AcDbSymbolTableRecord
100
AcDbLayerTableRecord
2
0
70
0
62
7
6
CONTINUOUS
0
ENDTAB
0
TABLE
2
STYLE
5
3
100
AcDbSymbolTable
70
1
0
STYLE
5
11
100
AcDbSymbolTableRecord
100
AcDbTextStyleTableRecord
2
STANDARD
70
0
0
ENDTAB
0
TABLE
2
VIEW
5
6
100
AcDbSymbolTable
70
0
0
ENDTAB
0
TABLE
2
UCS
5
7
100
AcDbSymbolTable
70
0
0
ENDTAB
0
TABLE
2
APPID
5
9
100
AcDbSymbolTable
70
2
0
APPID
5
12
100
AcDbSymbolTableRecord
100
AcDbRegAppTableRecord
2
ACAD
70
0
0
ENDTAB
0
TABLE
2
DIMSTYLE
5
A
100
AcDbSymbolTable
70
1
0
ENDTAB
0
TABLE
2
BLOCK_RECORD
5
1
100
AcDbSymbolTable
70
1
0
BLOCK_RECORD
5
1F
100
AcDbSymbolTableRecord
100
AcDbBlockTableRecord
2
*MODEL_SPACE
0
BLOCK_RECORD
5
1B
100
AcDbSymbolTableRecord
100
AcDbBlockTableRecord
2
*PAPER_SPACE
0
ENDTAB
0
ENDSEC
0
SECTION
2
BLOCKS
0
BLOCK
5
20
100
AcDbEntity
100
AcDbBlockBegin
2
*MODEL_SPACE
0
ENDBLK
5
21
100
AcDbEntity
100
AcDbBlockEnd
0
BLOCK
5
1C
100
AcDbEntity
100
AcDbBlockBegin
2
*PAPER_SPACE
0
ENDBLK
5
1D
100
AcDbEntity
100
AcDbBlockEnd
0
ENDSEC
0
SECTION
2
ENTITIES
0
LWPOLYLINE
5
100
100
AcDbEntity
8
0
100
AcDbPolyline
90
69
70
1
43
0.0
10
-4.7021389999997165
20
13.190545000000036
42
0.37964154675128392
10
-5.1999999999999993
20
13.624999999999805
10
-5.9000000000000004
20
13.625
10
-5.9655449999999997
20
13.622861000000002
42
0.37964154675128398
10
-6.3999999999998032
20
13.125000000000002
10
-6.4000000000000012
20
12.225000000000001
10
-6.4024070000003395
20
12.126746000000034
42
-0.38754304742037593
10
-7.4000000000000021
20
11.224999999999788
10
-11
20
11.225000000000001
10
-11.098254000000001
20
11.222593
42
0.38754304741778173
10
-11.999999999991214
20
10.225000000000041
10
-12.000000000000002
20
-4.5750000000000002
10
-11.300000000000001
20
-4.5750000000000002
10
-11.201746000000005
20
-4.5774070000000213
42
-0.95328952336161943
10
-11.300000000000001
20
-6.5750000000001947
10
-12.000000000000002
20
-6.5750000000000011
10
-12.000000000000002
20
-8.2750000000000021
10
-11.300000000000001
20
-8.2750000000000021
10
-11.210144999999944
20
-8.2775149999995037
42
-0.94700051845716859
10
-11.300000000000004
20
-9.8750000000008491
10
-12.000000000000002
20
-9.875
10
-12.000000000000002
20
-12.625000000000002
10
-11.997593
20
-12.723254000000001
42
0.38754304741673945
10
-11.000000000000041
20
-13.624999999991232
10
11
20
-13.625
10
11.098254000000001
20
-13.622593
42
0.38754304741933315
10
12.000000000000233
20
-12.625000000000002
10
12.000000000000002
20
-9.875
10
11.300000000000001
20
-9.875
10
11.210145000000008
20
-9.8724849999999496
42
-0.94700051845126965
10
11.300000000000004
20
-8.2749999999991442
10
12.000000000000002
20
-8.2750000000000021
10
12.000000000000002
20
-6.5750000000000011
10
11.300000000000001
20
-6.5750000000000011
10
11.20174600000005
20
-6.5725929999994985
42
-0.95328952335686301
10
11.300000000000001
20
-4.5749999999997994
10
12.000000000000002
20
-4.5750000000000002
10
12.000000000000002
20
10.225
10
11.997593
20
10.323254000000002
42
0.38754304742037465
10
11
20
11.225000000000215
10
7.4000000000000012
20
11.225000000000001
10
7.3017460000000325
20
11.227407000000341
42
-0.3875430474203756
10
6.3999999999997881
20
12.225000000000001
10
6.4000000000000012
20
13.125
10
6.3978610000000007
20
13.190545
42
0.37964154675128275
10
5.9000000000000021
20
13.624999999999805
10
5.2000000000000002
20
13.625
10
5.134455
20
13.622861000000002
42
0.37964154675128398
10
4.7000000000001956
20
13.125000000000002
10
4.7000000000000002
20
12.225000000000001
10
4.6971180000004491
20
12.165899999999915
42
-0.36551041555766722
10
4.3999999999999941
20
11.924999999999681
10
4.2999999999999998
20
11.925000000000001
10
3.3500000000000001
20
11.925000000000001
10
3.2908999999999149
20
11.927881999999554
42
-0.365510415557669
10
3.0499999999996814
20
12.225000000000009
10
3.0499999999999998
20
12.585000000000001
10
3.0471180000000002
20
12.6441
42
0.36551041555766983
10
2.7499999999999942
20
12.885000000000321
10
-2.75
20
12.885
42
0.41421333333265714
10
-3.0499999999999772
20
12.585000000000001
10
-3.0499999999999998
20
12.225000000000001
10
-3.0528819999995509
20
12.165899999999914
42
-0.36551041555766772
10
-3.3500000000000063
20
11.924999999999681
10
-4.2999999999999998
20
11.925000000000001
10
-4.4000000000000004
20
11.925000000000001
10
-4.4591000000000856
20
11.927881999999554
42
-0.365510415557669
10
-4.700000000000319
20
12.225000000000009
10
-4.7000000000000002
20
13.125
0
LINE
5
101
100
AcDbEntity
8
0
100
AcDbLine
10
-1.9984014443252818e-14
20
-13.624999999995616
30
0
11
3.8062886176248794e-12
21
-4.0249999999956154
31
0
0
LINE
5
102
100
AcDbEntity
8
1
100
AcDbLine
10
3.8062886176248794e-12
20
-4.0249999999956154
30
0
11
-6.4999999999961942
21
-4.0249999999930246
31
0
0
LINE
5
103
100
AcDbEntity
8
1
100
AcDbLine
10
-6.4999999999961942
20
-4.0249999999930246
30
0
11
-6.5000000000000204
21
-13.624999999993026
31
0
0
LINE
5
104
100
AcDbEntity
8
1
100
AcDbLine
10
3.8062886176248794e-12
20
-4.0249999999956154
30
0
11
6.5000000000038058
21
-4.0249999999982053
31
0
0
LINE
5
105
100
AcDbEntity
8
1
100
AcDbLine
10
6.5000000000038058
20
-4.0249999999982053
30
0
11
6.4999999999999805
21
-13.624999999998206
31
0
0
ENDSEC
0
SECTION
2
OBJECTS
0
DICTIONARY
5
C
100
AcDbDictionary
3
ACAD_GROUP
350
D
3
ACAD_MLINESTYLE
350
17
0
DICTIONARY
5
D
100
AcDbDictionary
0
DICTIONARY
5
1A
330
C
100
AcDbDictionary
0
DICTIONARY
5
17
100
AcDbDictionary
0
ENDSEC
0
EOF
